<svg width="20" height="20" viewBox="0 0 20 20" fill="none" xmlns="http://www.w3.org/2000/svg">
<path d="M10 4.99998V3.33331M10 4.99998C9.55801 4.99998 9.13409 5.17557 8.82153 5.48813C8.50897 5.8007 8.33337 6.22462 8.33337 6.66665C8.33337 7.10867 8.50897 7.5326 8.82153 7.84516C9.13409 8.15772 9.55801 8.33331 10 8.33331M10 4.99998C10.4421 4.99998 10.866 5.17557 11.1786 5.48813C11.4911 5.8007 11.6667 6.22462 11.6667 6.66665C11.6667 7.10867 11.4911 7.5326 11.1786 7.84516C10.866 8.15772 10.4421 8.33331 10 8.33331M10 8.33331V16.6666M5.00004 15C5.44207 15 5.86599 14.8244 6.17855 14.5118C6.49111 14.1993 6.66671 13.7753 6.66671 13.3333C6.66671 12.8913 6.49111 12.4674 6.17855 12.1548C5.86599 11.8422 5.44207 11.6666 5.00004 11.6666M5.00004 15C4.55801 15 4.13409 14.8244 3.82153 14.5118C3.50897 14.1993 3.33337 13.7753 3.33337 13.3333C3.33337 12.8913 3.50897 12.4674 3.82153 12.1548C4.13409 11.8422 4.55801 11.6666 5.00004 11.6666M5.00004 15V16.6666M5.00004 11.6666V3.33331M15 15C15.4421 15 15.866 14.8244 16.1786 14.5118C16.4911 14.1993 16.6667 13.7753 16.6667 13.3333C16.6667 12.8913 16.4911 12.4674 16.1786 12.1548C15.866 11.8422 15.4421 11.6666 15 11.6666M15 15C14.558 15 14.1341 14.8244 13.8215 14.5118C13.509 14.1993 13.3334 13.7753 13.3334 13.3333C13.3334 12.8913 13.509 12.4674 13.8215 12.1548C14.1341 11.8422 14.558 11.6666 15 11.6666M15 15V16.6666M15 11.6666V3.33331" stroke="#FEFEFE" stroke-width="1.5" stroke-linecap="round" stroke-linejoin="round"/>
</svg>
