<svg width="622" height="402" viewBox="0 0 622 402" fill="none" xmlns="http://www.w3.org/2000/svg">
<path d="M483.922 1H149.905C143.751 1 138.763 6.46828 138.763 13.2137V235.127C138.763 241.872 143.751 247.34 149.905 247.34H483.922C490.076 247.34 495.064 241.872 495.064 235.127V13.2137C495.064 6.46828 490.076 1 483.922 1Z" stroke="#1B1C1E" stroke-width="1.81" stroke-linecap="round" stroke-linejoin="round"/>
<path d="M473.37 12.4863H160.482C154.328 12.4863 149.34 17.9546 149.34 24.7001V223.622C149.34 230.368 154.328 235.836 160.482 235.836H473.37C479.523 235.836 484.512 230.368 484.512 223.622V24.7001C484.512 17.9546 479.523 12.4863 473.37 12.4863Z" stroke="#1B1C1E" stroke-width="1.81" stroke-linecap="round" stroke-linejoin="round"/>
<path d="M149.815 174.669C138.042 176.222 136.592 167.753 132.307 155.71C128.022 143.667 128.776 132.361 125.868 113.842C122.468 92.2887 146.349 91.8037 151.265 122.024C151.47 123.245 151.691 124.664 151.929 126.218C152.625 130.591 153.502 136.096 154.763 141.557C155.083 142.931 155.427 144.305 155.787 145.661C158.163 154.363 161.612 173.106 149.815 174.669Z" fill="#B25E47"/>
<path d="M154.809 141.557C138.964 146.945 136.613 132.738 136.785 126.927L151.958 126.218C152.671 130.564 153.547 136.07 154.809 141.557Z" fill="#914839"/>
<path d="M211.784 231.417C211.169 232.06 210.518 232.66 209.835 233.214C209.318 233.663 208.696 234.175 207.975 234.704L207.36 235.162L206.656 235.656C205.664 236.339 204.542 237.057 203.28 237.758C202.691 238.09 202.068 238.431 201.412 238.746C201.077 238.916 200.732 239.087 200.372 239.249L199.299 239.734C198.963 239.877 198.627 240.021 198.275 240.156C197.922 240.29 197.455 240.497 196.98 240.659C196.505 240.82 196.161 240.955 195.751 241.09C195.342 241.224 194.932 241.368 194.481 241.494L193.334 241.826L193.023 241.907L191.843 242.194C190.901 242.428 189.934 242.616 188.927 242.778C188.517 242.859 188.107 242.922 187.673 242.976C187.518 242.976 187.362 243.021 187.198 243.029C186.764 243.092 186.33 243.137 185.887 243.182V243.272C186.117 245.751 188.607 292.666 189.246 304.996L189.304 306.092C189.304 306.343 189.304 306.568 189.304 306.765C157.827 305.867 126.466 305.535 96.2508 305.625C95.6281 293.285 94.5057 270.483 93.4161 247.25C91.9005 214.695 90.4585 181.341 90.6224 174.857V174.758C90.9665 162.275 89.3689 152.926 99.0937 148.804C102.485 147.367 107.286 146.559 113.972 146.487H115.258H116.675H118.166C118.674 146.487 119.149 146.487 119.608 146.433H120.616L121.574 146.379H122.394L123.721 146.298L124.655 146.227C125.146 146.227 125.589 146.155 125.999 146.119H126.253L126.719 146.074L127.383 145.993H127.612C128.063 145.93 128.432 145.867 128.702 145.814C128.972 145.76 129.095 145.733 129.243 145.697C129.401 145.664 129.555 145.61 129.702 145.535C131.848 152.037 137.829 163.928 147.857 162.428C157.885 160.928 157.041 148.678 155.05 143.317L155.238 143.496L155.525 143.748L156.156 144.251C156.246 144.323 156.344 144.404 156.451 144.475L156.787 144.718L157.114 144.942L157.565 145.239C157.95 145.472 158.384 145.697 158.786 145.894L159.212 146.083C159.499 146.191 159.785 146.272 160.031 146.343C160.336 146.411 160.646 146.444 160.957 146.442C161.055 146.452 161.154 146.452 161.252 146.442C161.358 146.442 161.457 146.442 161.555 146.388C163.12 145.957 167.519 145.113 173.541 147.699C177.383 149.361 181.889 152.423 186.747 157.902C189.893 161.68 192.556 165.91 194.662 170.474C203.321 187.942 209.753 214.543 211.784 231.417Z" fill="#C6C3FF"/>
<path d="M194.669 170.322C189.402 169.5 184.036 170.611 179.406 173.483C175.768 175.905 172.906 179.504 171.213 183.784C162.758 204.224 140.605 211.902 125.801 189.28C123.743 186.076 121.36 183.138 118.698 180.524C110.743 172.872 101.493 170.762 90.5149 174.947V174.848C90.859 162.365 89.2614 153.016 98.9861 148.894C102.378 147.457 107.179 146.649 113.864 146.577C128.037 146.415 129.619 145.418 129.619 145.418C131.765 151.92 137.746 163.811 147.774 162.311C157.802 160.811 156.958 148.562 154.967 143.2C155.188 143.407 159.063 146.936 161.521 146.263C163.086 145.832 167.485 144.987 173.507 147.574C177.349 149.235 181.855 152.298 186.714 157.776C189.872 161.543 192.548 165.764 194.669 170.322Z" fill="#C6C3FF"/>
<path d="M209.094 307.484C202.491 307.251 195.891 307.041 189.293 306.855V306.182L189.235 305.086L185.876 243.362V243.272L209.094 225.939C209.406 228.203 209.668 230.663 209.914 233.268C212.011 259.886 209.455 301.736 209.094 307.484Z" fill="#B25E47"/>
<path d="M211.785 231.417C211.785 231.417 202.519 241.664 185.839 243.254C184.922 213.77 182.341 190.43 179.473 173.483C177.499 161.763 175.377 153.088 173.616 147.574C177.458 149.235 181.964 152.298 186.822 157.776C189.968 161.554 192.631 165.784 194.736 170.349C203.322 187.942 209.754 214.543 211.785 231.417Z" fill="#EAC9FF"/>
<path d="M194.717 170.322C189.451 169.5 184.084 170.611 179.454 173.483C177.48 161.763 175.358 153.088 173.597 147.574C177.439 149.235 181.945 152.298 186.803 157.776C189.947 161.546 192.61 165.766 194.717 170.322Z" fill="#EAC9FF"/>
<path d="M185.828 243.254C184.91 213.771 182.33 190.43 179.462 173.483" stroke="#C882FF" stroke-width="0.68" stroke-linecap="round" stroke-linejoin="round"/>
<path d="M129.186 142.185C124.27 144.305 124.27 146.676 124.27 149.253C124.27 151.831 128.678 165.894 137.296 175.881C138.976 177.83 141.475 165.805 143.941 165.104C146.407 164.404 148.619 165.643 149.766 165.463C150.913 165.284 153.952 161.979 155.927 163.479C157.901 164.978 162.079 172.459 162.899 172.657C163.718 172.854 163.8 154.938 161.915 148.643C161.421 146.863 160.494 145.266 159.234 144.02C157.974 142.775 156.429 141.93 154.763 141.575C154.763 141.575 156.123 154.579 152.15 158.44C143.891 166.487 135.396 156.348 129.186 142.185Z" fill="#FEFEFE"/>
<path d="M126.848 106.559C123.972 105.392 119.564 108.355 120.162 113.268C120.76 118.18 127.388 119.788 130.665 116.941C129.024 113.657 127.743 110.172 126.848 106.559Z" fill="#B25E47"/>
<path d="M122.471 113.591C122.225 111.48 124.552 108.149 128.206 111.31" stroke="#914839" stroke-width="0.68" stroke-linecap="round" stroke-linejoin="round"/>
<path d="M126.732 114.974C122.923 114.866 124.045 110.367 127.486 110.762" stroke="#914839" stroke-width="0.68" stroke-linecap="round" stroke-linejoin="round"/>
<path d="M156.671 111.588L154.607 112.244L134.379 118.656C134.379 118.656 133.838 118.081 133.019 117.084C130.347 113.86 128.219 110.141 126.735 106.101C126.29 104.796 125.979 103.44 125.809 102.06C124.81 93.4651 132.961 77.3627 146.529 84.7988C150.912 89.3789 153.402 97.5154 154.041 99.9043L154.254 100.713C155.033 103.901 156.671 111.588 156.671 111.588Z" fill="#B25E47"/>
<path d="M142.186 108.544C142.186 110.837 141.355 113.037 139.876 114.659C138.396 116.281 136.389 117.192 134.297 117.192C133.861 117.193 133.425 117.157 132.994 117.084C130.322 113.86 128.195 110.141 126.71 106.101C127.245 104.102 128.42 102.382 130.019 101.255C131.618 100.129 133.533 99.6726 135.414 99.9695C137.295 100.266 139.016 101.297 140.259 102.872C141.503 104.447 142.188 106.46 142.186 108.544Z" fill="#914839"/>
<path d="M156.671 111.588L154.607 112.244C153.75 111.617 153.043 110.776 152.542 109.79C152.041 108.804 151.762 107.701 151.728 106.573C151.693 105.445 151.904 104.324 152.344 103.303C152.783 102.283 153.438 101.392 154.255 100.704C155.033 103.901 156.671 111.588 156.671 111.588Z" fill="#914839"/>
<path d="M141.847 99.8774C141.846 100.106 141.906 100.329 142.021 100.519C142.135 100.71 142.299 100.859 142.491 100.947C142.683 101.035 142.894 101.058 143.098 101.014C143.303 100.97 143.49 100.86 143.637 100.699C143.785 100.538 143.885 100.332 143.925 100.108C143.965 99.8846 143.943 99.6527 143.863 99.4423C143.783 99.2319 143.647 99.0525 143.473 98.9268C143.3 98.8012 143.096 98.7351 142.888 98.7369C142.751 98.7369 142.616 98.7664 142.489 98.8237C142.363 98.881 142.249 98.965 142.152 99.0709C142.055 99.1768 141.979 99.3026 141.926 99.4409C141.874 99.5793 141.847 99.7276 141.847 99.8774Z" fill="#683F1D"/>
<path d="M149.416 98.7367C149.416 98.9645 149.477 99.1871 149.593 99.3763C149.709 99.5655 149.873 99.7129 150.065 99.7996C150.257 99.8863 150.468 99.9085 150.672 99.8635C150.876 99.8184 151.062 99.708 151.209 99.5463C151.355 99.3847 151.454 99.179 151.494 98.9554C151.533 98.7319 151.511 98.5004 151.431 98.2906C151.35 98.0807 151.214 97.9018 151.041 97.7765C150.867 97.6513 150.664 97.5854 150.456 97.5872C150.319 97.5872 150.183 97.617 150.056 97.6749C149.929 97.7327 149.814 97.8176 149.717 97.9244C149.621 98.0313 149.544 98.1581 149.492 98.2975C149.441 98.4369 149.415 98.5862 149.416 98.7367Z" fill="#683F1D"/>
<path d="M158.384 125.472C153.968 137.884 142.973 134.282 138.066 130.798C133.158 127.313 130.692 118.369 127.219 112.253C122.672 104.287 122.819 96.4647 125.236 90.6991C126.749 86.7971 129.596 83.6993 133.166 82.0687C140.851 78.9883 146.537 84.7629 146.537 84.7629C146.381 90.1513 136.984 88.7144 135.206 88.1306C130.823 86.7207 129.045 91.8576 128.529 95.9169C127.923 100.632 128.578 105.535 130.93 109.136C133.281 112.738 135.026 113.627 136.304 111.831C137.582 110.035 140.016 107.996 146.226 106.9C152.436 105.805 155.287 109.056 155.287 109.056C155.287 107.834 154.107 100.38 154.041 99.9223C156.294 104.29 157.927 109.008 158.883 113.914C159.563 117.767 159.653 121.871 158.384 125.472Z" fill="#FFEACC"/>
<path d="M158.384 125.472C153.968 137.884 142.973 134.282 138.066 130.798C133.158 127.313 130.692 118.369 127.219 112.253C122.672 104.287 122.819 96.4648 125.236 90.6992C125.072 106.047 134.813 123.03 140.802 126.155C146.422 129.101 156.548 128.122 158.867 113.923C159.563 117.767 159.653 121.871 158.384 125.472Z" fill="#EDD6B7"/>
<path d="M142.888 110.484C145.403 110.651 147.926 110.651 150.442 110.484C150.442 110.484 149.434 114.139 146.345 113.824C145.51 113.776 144.714 113.42 144.086 112.814C143.459 112.207 143.036 111.386 142.888 110.484Z" fill="#FEFEFE" stroke="#914839" stroke-width="0.68" stroke-linecap="round" stroke-linejoin="round"/>
<path d="M141.843 91.5432C142.351 93.7435 137.296 97.6321 136.035 96.0336C134.773 94.435 141.073 88.2383 141.843 91.5432Z" fill="#FFEACC"/>
<path d="M146.391 90.5822C146.236 92.1628 152.315 93.492 152.397 92.2975C152.478 91.1031 146.678 87.7264 146.391 90.5822Z" fill="#FFEACC"/>
<path d="M145.365 93.1868C144.775 95.4589 144.398 98.4135 146.389 99.4732C148.38 100.533 151.075 100.12 151.346 104.449" stroke="#914839" stroke-width="0.68" stroke-linecap="round" stroke-linejoin="round"/>
<path d="M72.4321 241.305C71.2933 255.504 71.2605 285.221 84.7212 292.765C106.899 305.185 111.593 273.07 110.618 241.305H72.4321Z" fill="#B25E47"/>
<path d="M118.815 191.633C118.397 210.412 111.007 246.514 111.007 246.514C104.134 247.134 98.2595 247.412 93.2374 247.412C72.0838 247.412 66.2015 242.85 66.2015 242.85C66.2015 242.85 70.4862 206.658 76.5407 182.931C77.1469 180.533 77.7778 178.261 78.4168 176.168C83.996 158.036 91.0418 150.511 98.8986 148.966C100.968 148.575 103.081 148.547 105.158 148.885C113.858 150.178 117.684 165.05 118.61 180.596C118.84 184.233 118.897 187.987 118.815 191.633Z" fill="#EAC9FF"/>
<path d="M118.7 180.524C110.745 172.872 101.495 170.762 90.5167 174.947C85.5802 176.909 80.8982 179.569 76.5891 182.859C77.1954 180.461 77.8262 178.189 78.4653 176.096C84.0445 157.964 91.0902 150.439 98.947 148.894C101.016 148.503 103.129 148.476 105.206 148.813C113.948 150.106 117.774 164.96 118.7 180.524Z" fill="#EAC9FF"/>
<path d="M118.89 191.633C118.472 210.412 111.082 246.514 111.082 246.514" stroke="#C882FF" stroke-width="0.68" stroke-linecap="round" stroke-linejoin="round"/>
<path d="M197.604 210.493C197.604 210.493 200.061 212.468 197.448 217.875C197.448 217.875 200.176 220.632 196.522 225.257C197.02 226.325 197.152 227.552 196.897 228.718C196.642 229.884 196.015 230.911 195.129 231.615C191.438 235.155 187.517 238.397 183.397 241.314C181.48 242.608 178.842 244.502 174.68 247.736C173.042 249.011 171.141 250.502 168.945 252.226C164.03 256.15 157.623 261.368 149.185 268.391C114.98 296.824 94.5556 300.722 82.6762 291.355C73.2382 283.919 85.134 250.385 121.567 236.968C140.32 230.053 151.831 226.433 158.877 224.26C161.736 223.362 163.866 222.733 165.431 222.212C167.512 221.512 168.634 221.027 169.249 220.461C171.444 218.396 172.46 215.971 173.525 213.061C174.59 210.151 177.097 199.249 177.72 196.267C178.342 193.286 183.053 191.561 182.267 208.418C182.267 208.418 195.744 203.604 198.185 202.913C200.627 202.221 201.593 208.086 197.604 210.493Z" fill="#B25E47"/>
<path d="M174.663 247.736C173.025 249.011 171.124 250.502 168.929 252.226C165.848 248.212 159.294 238.09 158.876 224.269C161.735 223.371 163.865 222.742 165.43 222.221C165.848 229.199 169.584 241.449 174.663 247.736Z" fill="#683F1D"/>
<path d="M164.454 243.254C167.879 243.254 170.655 240.211 170.655 236.456C170.655 232.701 167.879 229.657 164.454 229.657C161.028 229.657 158.252 232.701 158.252 236.456C158.252 240.211 161.028 243.254 164.454 243.254Z" fill="#FEFEFE" stroke="#683F1D" stroke-width="0.9" stroke-linecap="round" stroke-linejoin="round"/>
<path d="M173.54 213.07C174.597 210.151 177.112 199.258 177.735 196.276C178.357 193.295 183.068 191.57 182.281 208.427C182.281 208.427 195.758 203.613 198.2 202.922C200.641 202.23 201.575 208.086 197.585 210.493C197.585 210.493 200.043 212.468 197.43 217.875C197.43 217.875 200.158 220.632 196.504 225.257C197.001 226.325 197.134 227.552 196.879 228.718C196.624 229.884 195.997 230.911 195.111 231.615" stroke="#914839" stroke-width="0.68" stroke-linecap="round" stroke-linejoin="round"/>
<path d="M197.589 210.493C195.131 211.732 190.133 213.986 190.133 213.986" stroke="#914839" stroke-width="0.68" stroke-linecap="round" stroke-linejoin="round"/>
<path d="M197.434 217.875C195.943 218.943 192.461 220.856 192.461 220.856" stroke="#914839" stroke-width="0.68" stroke-linecap="round" stroke-linejoin="round"/>
<path d="M196.505 225.257C195.792 225.71 195.047 226.1 194.277 226.424" stroke="#914839" stroke-width="0.68" stroke-linecap="round" stroke-linejoin="round"/>
<path d="M182.291 208.427C180.005 209.163 178.194 209.909 178.194 209.909" stroke="#914839" stroke-width="0.68" stroke-linecap="round" stroke-linejoin="round"/>
<path d="M342.828 176.195C342.734 178.054 342.55 179.907 342.279 181.745C340.157 196.878 332.53 218.62 324.067 231.902C322.372 234.64 320.417 237.172 318.233 239.455C311.581 246.164 300.988 247.43 293.59 242.733C291.356 241.322 289.453 239.36 288.031 237.004C286.609 234.647 285.707 231.959 285.397 229.154C285.075 226.723 285.05 224.256 285.323 221.817C286.741 208.068 295.286 184.502 305.6 167.502C306.772 165.544 307.984 163.667 309.205 161.916C315.03 153.546 321.199 147.708 326.836 147.08C328 146.93 329.18 147.031 330.309 147.376C339.649 150.322 343.672 158.333 342.828 176.195Z" fill="#EAC9FF"/>
<path d="M325.779 184.448C322.948 195.122 321.812 206.249 322.42 217.345C322.746 222.242 323.309 227.116 324.107 231.947C322.413 234.685 320.458 237.217 318.274 239.5C311.622 246.209 301.029 247.475 293.631 242.778C291.397 241.367 289.494 239.405 288.072 237.049C286.65 234.692 285.748 232.004 285.438 229.199C291.992 236.905 298.874 238.566 304.281 236.617C312.13 233.851 317.054 223.622 314.03 213.16C308.713 194.767 320.708 184.251 326.434 181.188C326.287 182.212 326.057 183.299 325.779 184.448Z" fill="#C882FF"/>
<path d="M342.855 176.195C342.761 178.054 342.578 179.907 342.306 181.745C341.325 180.15 340.517 178.435 339.897 176.635C336.997 168.149 331.77 163.371 325.97 161.296C320.489 159.432 314.594 159.651 309.24 161.916C315.065 153.546 321.234 147.708 326.871 147.08C328.036 146.93 329.215 147.031 330.345 147.376C339.676 150.322 343.699 158.333 342.855 176.195Z" fill="#EAC9FF"/>
<path d="M408.221 325.894C386.362 321.844 364.545 318.602 343.654 316.42C337.493 315.785 331.269 315.186 324.983 314.624C326.162 299.024 328.817 273.42 333.7 267.197C333.958 266.803 334.291 266.475 334.675 266.234C335.06 265.994 335.487 265.848 335.928 265.805C338.697 265.751 345.628 265.499 353.87 265.167C372.164 264.413 396.915 263.29 396.915 263.29C397.267 264.799 397.619 266.299 397.963 267.78C397.963 267.843 397.963 267.915 398.021 267.987C402.354 287.078 405.759 306.408 408.221 325.894Z" fill="#7D77FF"/>
<path d="M388.141 271.004C390.705 277.291 397.562 284.664 399.881 286.343" stroke="#FEFEFE" stroke-width="0.9" stroke-miterlimit="10"/>
<path d="M365.029 161.611C354.477 163.021 352.2 153.753 352.134 140.506C352.134 137.39 352.232 134.049 352.388 130.564C352.473 128.52 352.673 126.484 352.986 124.466C356.583 101.898 373.624 104.628 374.5 117.929C374.836 122.976 378.08 159.868 365.029 161.611Z" fill="#B25E47"/>
<path d="M364.794 126.595C364.229 135.504 358.388 140.066 352.153 140.506C352.153 137.39 352.251 134.049 352.407 130.564C352.492 128.52 352.692 126.484 353.005 124.467C356.438 122.859 365.237 119.41 364.794 126.595Z" fill="#914839"/>
<path d="M405.714 214.354C405.157 216.391 404.716 218.463 404.395 220.56C404.305 221.135 404.223 221.709 404.141 222.275C400.905 244.377 400.504 264.88 400.282 267.008C400.061 269.136 382.004 268.4 368.568 267.682C363.333 267.394 356.566 267.475 350.184 267.529C340.189 267.61 331.136 267.637 330.374 266.083C329.891 265.077 328.596 259.195 327.187 251.642C326.966 250.466 326.745 249.262 326.515 248.05C326.4 247.439 326.294 246.81 326.187 246.182C326.081 245.553 325.933 244.736 325.811 244.017C325.688 243.299 325.54 242.473 325.409 241.691C325.122 239.967 324.836 238.225 324.59 236.492C324.344 234.758 324.066 233.061 323.828 231.391C323.071 226.551 322.551 221.671 322.271 216.77C321.77 205.666 323.015 194.551 325.95 183.91C326.024 183.631 326.097 183.362 326.155 183.092C326.269 182.625 326.376 182.194 326.474 181.7L326.622 180.973C326.671 180.73 326.712 180.488 326.753 180.246C326.794 180.003 326.843 179.761 326.876 179.527C326.908 179.294 326.949 179.042 326.982 178.8C327.056 178.333 327.113 177.857 327.171 177.399C327.285 176.249 327.375 175.118 327.416 174.013C327.416 173.86 327.416 173.708 327.416 173.564C327.416 172.783 327.416 172.01 327.416 171.247C327.341 167.74 326.982 164.248 326.343 160.811C325.311 154.947 323.926 150.537 324.27 148.508C324.434 147.511 325.376 146.909 327.031 146.649C327.146 146.649 327.269 146.649 327.375 146.604C331.472 146.083 339.288 147.349 349.954 149.765C350.171 147.141 350.551 144.537 351.093 141.97C351.199 141.57 351.422 141.219 351.729 140.974C352.036 140.728 352.409 140.601 352.789 140.614C353.953 140.497 355.526 140.964 357.033 141.117C359.597 141.377 368.323 139.635 372.812 137.039C373.714 136.462 374.711 136.083 375.745 135.926C377.9 135.701 378.645 137.56 378.924 140.102C378.924 140.21 378.924 140.326 378.924 140.434C378.924 140.542 378.924 140.668 378.924 140.793C378.924 140.919 378.924 141.26 378.973 141.503C379.022 141.745 378.973 141.862 379.014 142.051C379.055 142.239 379.014 142.545 379.055 142.796C379.096 143.048 379.055 143.398 379.055 143.694C379.055 143.99 379.055 144.269 379.055 144.592C379.055 144.736 379.055 144.889 379.055 145.041C379.055 145.194 379.055 145.293 379.055 145.418C379.055 145.544 379.055 145.76 379.055 145.93C379.055 146.101 379.055 146.361 379.055 146.568C379.055 146.775 379.055 146.99 379.055 147.197V147.601C379.055 149.397 379.055 150.834 379.055 150.834C387.166 147.466 399.389 144.026 408.655 150.268H408.704C411.72 152.362 414.214 155.244 415.963 158.656C416.422 159.506 416.856 160.404 417.266 161.35C425.082 179.374 410.99 194.704 405.714 214.354Z" fill="#EAC9FF"/>
<path d="M416.098 158.62C408.274 159.671 399.516 165.239 391.299 175.944C390.021 177.608 388.759 179.404 387.514 181.332C374.299 201.602 351.286 196.231 342.454 181.449C341.487 179.847 340.695 178.126 340.094 176.321C337.268 167.798 332.09 162.958 326.314 160.82C325.282 154.956 323.897 150.546 324.242 148.517C324.405 147.52 325.348 146.918 327.002 146.658C327.117 146.658 327.24 146.658 327.347 146.613C331.443 146.092 339.259 147.358 349.926 149.774C350.142 147.15 350.522 144.546 351.064 141.979C351.17 141.579 351.394 141.228 351.701 140.983C352.008 140.737 352.38 140.61 352.76 140.623C353.924 140.506 355.497 140.973 357.004 141.126C359.569 141.386 368.294 139.644 372.783 137.048C373.685 136.471 374.682 136.093 375.716 135.935C377.871 135.71 378.617 137.569 378.895 140.111C378.895 140.219 378.895 140.335 378.895 140.443C378.895 140.551 378.895 140.677 378.895 140.802C378.895 140.928 378.895 141.269 378.944 141.512C378.993 141.754 378.944 141.871 378.985 142.06C379.026 142.248 378.985 142.554 379.026 142.805C379.067 143.057 379.026 143.407 379.026 143.703C379.026 144 379.026 144.278 379.026 144.601C379.026 144.745 379.026 144.898 379.026 145.05C379.026 145.203 379.026 145.302 379.026 145.427C379.026 145.553 379.026 145.769 379.026 145.939C379.026 146.11 379.026 146.37 379.026 146.577C379.026 146.784 379.026 146.999 379.026 147.206V147.61C379.026 149.406 379.026 150.843 379.026 150.843C387.137 147.475 399.361 144.035 408.627 150.277H408.676C411.746 152.335 414.298 155.204 416.098 158.62Z" fill="#EAC9FF"/>
<path d="M327.093 173.564C327.067 176.108 326.837 178.644 326.405 181.144C326.209 182.212 325.979 183.299 325.701 184.404C322.87 195.077 321.733 206.205 322.342 217.3C322.668 222.197 323.231 227.071 324.029 231.903C324.283 233.564 324.562 235.27 324.849 236.995C325.717 242.167 326.692 247.475 327.618 252.145C329.101 259.671 330.452 265.544 330.944 266.514" stroke="#C882FF" stroke-width="0.68" stroke-linecap="round" stroke-linejoin="round"/>
<path d="M404.287 221.889C401.263 244.035 401.059 264.529 400.854 266.658C400.649 268.786 382.592 268.274 369.156 267.699C363.921 267.475 357.154 267.637 350.772 267.762C356.015 262.976 366.862 255.108 377.267 260.084C391.711 266.99 398.519 245.203 389.704 243.254C380.888 241.305 380.429 230.313 378.709 221.422L385.919 218.216L404.287 221.889Z" fill="#C882FF"/>
<path d="M349.404 149.98C349.31 151.694 349.31 153.413 349.404 155.126" stroke="#C882FF" stroke-width="0.68" stroke-linecap="round" stroke-linejoin="round"/>
<path d="M378.711 150.367C378.594 153.743 378.453 155.944 378.453 155.944" stroke="#C882FF" stroke-width="0.68" stroke-linecap="round" stroke-linejoin="round"/>
<path d="M356.41 155.576C360.375 156.824 366.471 156.896 369.961 155.576" stroke="#C882FF" stroke-width="0.68" stroke-linecap="round" stroke-linejoin="round"/>
<path d="M442.204 234.911C438.107 240.614 426.973 241.709 417.912 233.779C415.385 231.542 413.222 228.852 411.514 225.822C410.514 224.08 409.228 221.44 407.794 218.333C407.163 216.95 406.492 215.477 405.812 213.95C402.002 205.4 397.619 195.037 394.85 189.109C393.461 186.115 392.42 182.941 391.753 179.662C391.474 178.36 391.253 177.039 391.081 175.71C388.992 159.752 394.219 142.994 408.335 149.774H408.376C411.186 151.13 414.176 154.067 417.183 157.919C424.475 167.295 431.799 182.167 436.469 193.348C437.534 195.89 438.451 198.243 439.205 200.299C444.662 215.171 447.308 227.744 442.204 234.911Z" fill="#EAC9FF"/>
<path d="M420.819 209.693C420.499 215.27 414.527 217.569 407.834 218.332C407.203 216.949 406.531 215.477 405.851 213.95C402.041 205.4 397.658 195.037 394.889 189.109C393.5 186.115 392.459 182.941 391.792 179.662C397.527 179.796 403.778 182.095 404.352 192.881C404.745 200.245 421.54 196.931 420.819 209.693Z" fill="#C882FF"/>
<path d="M417.183 157.946C416.692 157.946 416.2 158.036 415.717 158.108C407.901 159.24 399.2 164.915 391.081 175.71C388.992 159.752 394.219 142.994 408.335 149.774H408.376C411.186 151.157 414.176 154.094 417.183 157.946Z" fill="#EAC9FF"/>
<path d="M411.563 225.822C410.563 224.08 409.277 221.44 407.843 218.333C407.212 216.95 406.541 215.477 405.861 213.95C402.051 205.4 397.668 195.037 394.899 189.109C393.509 186.115 392.469 182.941 391.802 179.662C391.523 178.36 391.302 177.039 391.13 175.71" stroke="#C882FF" stroke-width="0.68" stroke-linecap="round" stroke-linejoin="round"/>
<path d="M442.251 234.911C438.155 240.614 427.021 241.709 417.96 233.779C420.193 232.993 422.561 232.775 424.883 233.142C434.108 234.615 443.21 230.448 436.115 218.674C430.38 209.127 434.476 197.12 436.516 193.375C437.581 195.917 438.499 198.27 439.253 200.326C444.709 215.171 447.355 227.744 442.251 234.911Z" fill="#C882FF"/>
<path d="M382.882 83.9905C381.153 85.3376 380.088 85.5531 380.129 87.5828C380.17 89.6124 379.367 90.2051 378.556 90.5374C377.745 90.8697 378.654 92.3785 378.4 93.8333C378.146 95.2882 374.738 96.6712 374.738 96.6712L352.102 84.9963C350.217 82.4817 351.036 81.0897 351.643 79.7426C351.702 79.6161 351.732 79.4761 351.732 79.334C351.732 79.1919 351.702 79.0519 351.643 78.9254C351.323 78.0273 349.947 77.1742 350.299 76.1234C350.75 74.7853 351.938 74.5608 353.396 74.5069C354.854 74.453 354.535 70.0165 353.863 68.8131C353.191 67.6097 353.707 64.691 355.993 64.8616C358.279 65.0323 359.147 64.5293 359.352 63.3529C359.49 62.9433 359.703 62.5692 359.979 62.254C360.254 61.9387 360.586 61.6891 360.954 61.5206C361.321 61.3521 361.716 61.2683 362.114 61.2745C362.513 61.2808 362.905 61.3768 363.268 61.5567C365.046 62.5715 366.545 61.449 367.643 60.3354C367.706 60.2656 367.774 60.2024 367.848 60.1468C369.019 59.1499 371.477 58.6021 372.477 60.3354C373.476 62.0686 374.82 62.9038 376.958 63.0296C379.097 63.1553 379.703 65.149 379.244 67.0978C378.785 69.0466 379.449 69.7202 380.825 70.6182C381.546 71.242 382.078 72.0914 382.348 73.0538C382.619 74.0161 382.616 75.046 382.341 76.0067C382.064 76.5746 381.965 77.2264 382.058 77.8622C382.151 78.498 382.432 79.0828 382.857 79.5271C383.537 80.3713 384.61 82.6524 382.882 83.9905Z" fill="#683F1D"/>
<path d="M374.311 115.89C372.523 116.73 370.584 117.114 368.641 117.013C360.867 116.617 341.884 124.323 341.884 124.323C338.697 124.754 336.755 125.957 338.197 127.7C339.639 129.442 340.991 134.471 337.304 134.884C336.579 134.959 335.85 134.959 335.125 134.884C332.962 134.678 332.004 133.681 332.274 132.747C332.618 131.552 334.961 131.849 335.404 131.328C335.846 130.807 335.952 129.747 334.511 128.265C333.069 126.784 332.053 124.502 333.519 122.176C334.986 119.85 337.952 117.731 336.157 116.088C334.363 114.444 332.88 112.971 333.7 111.004C334.519 109.038 338.681 106.254 336.739 103.82C334.797 101.386 333.052 98.3058 336.837 94.5339C340.622 90.762 344.457 91.4805 343.908 88.2474C343.359 85.0144 343.817 81.9071 347.897 82.6704C351.977 83.4338 352.584 83.1105 354.378 82.0148C356.172 80.9192 358.556 81.5209 360.858 83.7122C363.16 85.9035 365.34 83.4338 368.125 84.0355C370.911 84.6372 368.125 87.5829 371.665 88.2474C375.204 88.912 376.4 89.0647 376.801 92.7378C377.203 96.4109 379.546 96.4917 380.029 97.6592C381.037 100.003 379.439 101.647 378.989 103.048C378.538 104.449 379.53 105.275 380.316 106.712C381.57 109.145 378.899 113.753 374.311 115.89Z" fill="#683F1D"/>
<path d="M375.471 109.325C375.211 111.545 374.798 113.739 374.234 115.89C372.446 116.73 370.508 117.114 368.565 117.013C360.79 116.617 341.807 124.323 341.807 124.323C338.62 124.754 336.679 125.957 338.121 127.7C339.563 129.442 340.914 134.471 337.228 134.884C336.503 134.959 335.773 134.959 335.048 134.884C337.809 134.39 338.547 132.235 337.121 129.379C335.163 125.454 335.868 123.092 337.834 120.874C339.8 118.656 336.58 113.304 337.834 110.502C339.087 107.7 341.218 106.712 340.365 102.482C339.513 98.2519 339.931 96.1953 343.004 93.8693C346.076 91.5433 348.616 91.0673 350.246 88.2654C351.876 85.4634 356.128 83.6852 357.578 87.044C359.029 90.4028 359.495 92.6749 363.567 91.3098C367.639 89.9447 370.367 91.6241 368.917 95.4589C367.467 99.2937 368.155 102.931 370.711 103.398C373.267 103.865 375.979 104.009 375.471 109.325Z" fill="#683F1D"/>
<path d="M372.575 122.158C357.28 134.354 350.684 138.369 343.368 131.624C339.96 128.49 339.37 122.087 340.042 115.549C340.292 113.217 340.676 110.904 341.189 108.624C341.954 104.917 343.129 101.325 344.687 97.9285C347.964 91.4264 355.518 91.1031 356.28 91.4264C357.042 91.7497 357.28 92.2347 356.542 94.1207C355.805 96.0066 356.616 97.4166 358.738 97.4884C360.86 97.5603 363.285 99.1768 363.055 101.503C362.917 102.635 363.086 103.787 363.542 104.815C363.998 105.842 364.721 106.699 365.62 107.277C367.594 108.642 367.258 110.735 367.52 112.01C367.783 113.285 370.232 114.704 370.896 112.971C371.559 111.238 375.353 107.439 378.433 110.897C381.514 114.354 378.794 122.401 372.575 122.158Z" fill="#B25E47"/>
<path d="M354.235 113.438C354.972 115.118 357.626 115.387 360.15 114.049C362.673 112.711 364.14 110.268 363.427 108.589C362.714 106.909 360.043 106.631 357.512 107.978C354.98 109.325 353.497 111.759 354.235 113.438Z" fill="#914839"/>
<path d="M343.927 114.902C343.231 115.971 341.69 116.168 340.044 115.549C340.294 113.217 340.677 110.904 341.191 108.625C341.329 108.712 341.463 108.808 341.592 108.912C343.878 110.708 344.918 113.393 343.927 114.902Z" fill="#914839"/>
<path d="M343.62 106.792C343.618 107.02 343.678 107.243 343.792 107.433C343.907 107.624 344.07 107.772 344.261 107.861C344.453 107.949 344.664 107.973 344.868 107.93C345.072 107.887 345.259 107.778 345.407 107.617C345.554 107.457 345.655 107.252 345.696 107.029C345.737 106.806 345.717 106.574 345.638 106.364C345.559 106.153 345.424 105.973 345.252 105.846C345.079 105.72 344.876 105.652 344.668 105.652C344.392 105.652 344.126 105.772 343.93 105.985C343.733 106.199 343.622 106.489 343.62 106.792Z" fill="#683F1D"/>
<path d="M350.015 107.403C350.015 107.631 350.076 107.853 350.192 108.042C350.307 108.231 350.471 108.378 350.662 108.465C350.854 108.552 351.065 108.575 351.268 108.531C351.472 108.486 351.658 108.377 351.805 108.216C351.952 108.055 352.052 107.85 352.092 107.627C352.133 107.404 352.112 107.173 352.032 106.963C351.953 106.753 351.819 106.574 351.646 106.447C351.474 106.321 351.271 106.254 351.064 106.254C350.785 106.254 350.519 106.375 350.322 106.59C350.125 106.806 350.015 107.098 350.015 107.403Z" fill="#683F1D"/>
<path d="M372.001 117.021C372.206 114.552 374.778 111.148 377.556 113.663" stroke="#914839" stroke-width="0.68" stroke-linecap="round" stroke-linejoin="round"/>
<path d="M372.096 116.411C374.021 112.819 377.896 117.749 373.382 118.737" stroke="#914839" stroke-width="0.68" stroke-linecap="round" stroke-linejoin="round"/>
<path d="M346.608 114.148C345.461 113.564 345.01 112.423 345.109 112.145C345.207 111.867 348.795 108.966 348.107 104.502" stroke="#914839" stroke-width="0.68" stroke-linecap="round" stroke-linejoin="round"/>
<path d="M351.07 98.9255C350.743 101.252 355.896 103.524 356.691 102.06C357.371 100.802 351.546 95.5398 351.07 98.9255Z" fill="#683F1D"/>
<path d="M342.411 100.461C342.46 101.126 347.991 100.991 347.917 98.6648C347.843 96.3388 342.272 98.5031 342.411 100.461Z" fill="#683F1D"/>
<path d="M347.158 116.5C349.075 115.948 350.947 115.221 352.754 114.327C352.754 114.327 353.327 118.207 351.066 118.916C350.665 119.043 350.244 119.081 349.829 119.028C349.415 118.974 349.014 118.831 348.65 118.606C348.286 118.381 347.967 118.079 347.711 117.718C347.455 117.356 347.267 116.942 347.158 116.5Z" fill="#FEFEFE" stroke="#914839" stroke-width="0.68" stroke-linecap="round" stroke-linejoin="round"/>
<path d="M376.283 74.5696C375.464 77.4614 372.359 74.4708 372.113 78.6019C371.867 82.733 364.347 81.5745 362.044 77.5602C360.16 74.2553 354.818 75.4946 351.681 78.9881C351.361 78.09 349.985 77.2369 350.337 76.1861C350.788 74.848 351.976 74.6235 353.434 74.5696C354.892 74.5157 354.573 70.0792 353.901 68.8758C353.229 67.6724 353.745 64.7537 356.031 64.9243C358.317 65.095 359.185 64.592 359.39 63.4156C359.528 63.006 359.741 62.6319 360.017 62.3167C360.292 62.0015 360.624 61.7518 360.991 61.5833C361.359 61.4148 361.754 61.331 362.152 61.3372C362.55 61.3435 362.943 61.4395 363.306 61.6194C365.084 62.6343 366.583 61.5117 367.681 60.3981C367.744 60.3283 367.812 60.2651 367.886 60.2095C368.762 62.9037 369.401 66.6576 372.801 66.9899C377.545 67.4659 377.103 71.6688 376.283 74.5696Z" fill="#683F1D"/>
<path d="M278.437 154.013C278.863 151.049 286.458 148.84 290.874 147.915L292.561 159.877C292.561 159.877 280.42 157.973 278.437 154.013Z" fill="#C882FF"/>
<path d="M285.475 160.371C284.599 147.421 284.599 136.527 284.353 132.36C284.107 128.193 284.295 123.838 288.728 121.835C288.728 121.835 288.728 118.018 293.783 117.345C293.783 117.345 293.144 113.923 297.371 114.013C297.362 113.692 297.421 113.374 297.544 113.083C297.666 112.792 297.848 112.536 298.076 112.335C298.304 112.134 298.571 111.993 298.857 111.925C299.142 111.856 299.439 111.86 299.722 111.938C302.491 112.468 303.384 114.327 303.384 114.327C307.055 113.429 309.119 117.641 308.923 121.081C308.726 124.52 308.505 128.265 306.989 131.732C305.474 135.198 303.548 140.937 303.548 140.937L303.671 148.211C303.671 148.211 300.853 171.606 285.475 160.371Z" fill="#B25E47"/>
<path d="M284.356 132.36C284.102 128.238 284.298 123.838 288.731 121.835C288.731 121.835 288.73 118.018 293.785 117.345C293.785 117.345 293.146 113.923 297.374 114.013C297.365 113.692 297.424 113.374 297.547 113.083C297.669 112.792 297.851 112.536 298.079 112.335C298.307 112.134 298.574 111.993 298.86 111.925C299.145 111.856 299.441 111.86 299.725 111.938C302.494 112.468 303.387 114.327 303.387 114.327C307.058 113.429 309.122 117.641 308.926 121.081" stroke="#914839" stroke-width="0.68" stroke-linecap="round" stroke-linejoin="round"/>
<path d="M303.391 114.327C299.614 116.366 296.837 120.192 297.976 122.068C299.115 123.945 303.399 121.593 303.981 120.991" stroke="#914839" stroke-width="0.68" stroke-linecap="round" stroke-linejoin="round"/>
<path d="M297.055 114.022C298.481 114.229 301.291 115.962 301.291 115.962" stroke="#914839" stroke-width="0.68" stroke-linecap="round" stroke-linejoin="round"/>
<path d="M293.782 117.345C295.438 117.419 297.06 117.878 298.542 118.692" stroke="#914839" stroke-width="0.68" stroke-linecap="round" stroke-linejoin="round"/>
<path d="M297.907 127.394C299.168 126.343 300.258 124.493 299.93 122.778" stroke="#914839" stroke-width="0.68" stroke-linecap="round" stroke-linejoin="round"/>
<path d="M288.692 121.871C291.707 120.515 294.771 118.979 295.681 121.233C296.59 123.488 297.09 130.43 295.681 131.373C294.272 132.316 291.912 131.534 291.511 129.72C291.109 127.906 290.806 125.418 290.806 125.418" stroke="#914839" stroke-width="0.68" stroke-linecap="round" stroke-linejoin="round"/>
<path d="M294.323 131.768C295.593 133.483 295.142 139.554 293.782 141.583" stroke="#914839" stroke-width="0.68" stroke-linecap="round" stroke-linejoin="round"/>
<path d="M304.271 236.536C301.814 241.646 298.291 244.43 293.572 242.697C284.683 239.392 281.143 230.043 279.849 220.91C278.489 211.382 279.554 202.051 279.513 200.111C279.423 196.24 278.456 153.995 278.456 153.995C279.996 154.668 282.331 154.686 285.158 154.103C287.311 153.634 289.424 152.967 291.474 152.109C295.771 150.304 299.86 147.953 303.657 145.104L303.821 144.978C303.821 144.978 304.591 155.45 305.631 167.484C306.508 177.794 307.589 189.244 308.556 196.222C310.08 207.592 309.187 226.55 304.271 236.536Z" fill="#EAC9FF"/>
<path d="M304.26 236.536C301.802 241.646 298.279 244.43 293.56 242.697C284.671 239.392 281.132 230.043 279.837 220.91C281.42 223.86 283.288 226.615 285.408 229.127C291.971 236.86 298.828 238.521 304.26 236.536Z" fill="#C882FF"/>
<path d="M303.791 145.005C303.791 145.005 306.446 181.09 308.527 196.276C309.661 205.934 309.384 215.729 307.707 225.293" stroke="#C882FF" stroke-width="0.68" stroke-linecap="round" stroke-linejoin="round"/>
<path d="M397.753 188.42L366.146 173.948C363.653 172.807 360.788 174.096 359.747 176.829L340.978 226.086C339.937 228.818 341.114 231.958 343.606 233.099L375.213 247.571C377.706 248.712 380.571 247.423 381.612 244.69L400.381 195.433C401.422 192.701 400.245 189.561 397.753 188.42Z" fill="#1B1C1E"/>
<path d="M394.2 186.784L366.146 173.939C363.653 172.797 360.788 174.087 359.747 176.819L340.978 226.076C339.937 228.809 341.114 231.949 343.606 233.09L371.66 245.935C374.153 247.076 377.018 245.787 378.059 243.054L396.828 193.797C397.869 191.065 396.692 187.925 394.2 186.784Z" fill="#EEEEEE" stroke="#1B1C1E" stroke-width="0.9" stroke-linecap="round" stroke-linejoin="round"/>
<path d="M368.012 182.14C368.012 182.602 367.887 183.053 367.653 183.437C367.419 183.821 367.086 184.121 366.697 184.297C366.307 184.474 365.879 184.52 365.466 184.43C365.053 184.34 364.673 184.118 364.375 183.791C364.077 183.465 363.875 183.049 363.792 182.596C363.71 182.143 363.752 181.673 363.914 181.247C364.075 180.82 364.348 180.455 364.698 180.199C365.048 179.942 365.46 179.805 365.882 179.805C366.162 179.804 366.439 179.864 366.698 179.981C366.957 180.097 367.192 180.269 367.39 180.486C367.588 180.704 367.745 180.961 367.852 181.245C367.958 181.529 368.013 181.833 368.012 182.14Z" fill="#1B1C1E"/>
<path d="M371.52 184.448C371.522 184.68 371.46 184.907 371.344 185.1C371.228 185.294 371.061 185.445 370.866 185.534C370.671 185.624 370.457 185.648 370.249 185.603C370.042 185.558 369.851 185.447 369.702 185.283C369.552 185.119 369.451 184.91 369.41 184.683C369.369 184.456 369.391 184.22 369.473 184.006C369.554 183.793 369.692 183.61 369.868 183.483C370.045 183.355 370.252 183.288 370.463 183.29C370.743 183.292 371.01 183.415 371.208 183.632C371.406 183.849 371.518 184.142 371.52 184.448Z" fill="#1B1C1E"/>
<path d="M369.963 223.182C367.874 222.383 366.792 217.955 366.514 214.139L374.707 215.198C374.707 215.198 374.764 223.757 369.963 223.182Z" fill="#C882FF"/>
<path d="M372.723 220.928C370.398 219.109 367.992 217.418 365.513 215.863C364.579 215.306 359.279 214.651 355.592 212.423C353.108 210.885 350.714 209.178 348.423 207.313L346.965 210.286C346.965 210.286 344.098 206.891 343.688 203.829C343.278 200.766 344.409 200.668 345.081 200.012C345.752 199.356 345.335 198.387 345.294 196.806C345.253 195.225 346.482 194.902 346.867 194.345C347.252 193.788 346.908 192.342 346.826 190.394C346.744 188.445 348.857 188.346 349.193 187.232C349.529 186.119 349.832 182.536 352.716 183.47C355.6 184.404 368.151 194.624 368.971 195.091C370.191 195.569 371.439 195.956 372.706 196.249C372.706 196.249 382.98 213.86 372.723 220.928Z" fill="#B25E47"/>
<path d="M348.423 207.313L346.965 210.286C346.965 210.286 344.098 206.891 343.688 203.829C343.278 200.766 344.409 200.668 345.081 200.012C345.752 199.356 345.335 198.387 345.294 196.806C345.253 195.225 346.482 194.902 346.867 194.345C347.252 193.788 346.908 192.342 346.826 190.394C346.744 188.445 348.857 188.346 349.193 187.232C349.529 186.119 349.832 182.536 352.716 183.47" stroke="#914839" stroke-width="0.68" stroke-linecap="round" stroke-linejoin="round"/>
<path d="M348.432 207.313C346.999 205.993 346.704 205.777 346.704 205.777" stroke="#914839" stroke-width="0.68" stroke-linecap="round" stroke-linejoin="round"/>
<path d="M443.79 232.54C441.16 241.395 431.354 249.244 408.996 239.976L407.775 239.455C384.532 229.352 369.958 223.173 369.958 223.173C371.966 213.857 371.966 204.155 369.958 194.839C383.304 198.934 418.598 206.873 431.133 210.905C431.952 211.175 432.771 211.453 433.5 211.803C444.02 216.06 446.33 223.963 443.79 232.54Z" fill="#EAC9FF"/>
<path d="M407.786 239.455C384.543 229.352 369.976 223.182 369.976 223.182" stroke="#C882FF" stroke-width="0.68" stroke-linecap="round" stroke-linejoin="round"/>
<path d="M369.976 194.839C382.085 198.557 412.284 205.436 427.129 209.693" stroke="#C882FF" stroke-width="0.68" stroke-linecap="round" stroke-linejoin="round"/>
<path d="M443.786 232.54C441.156 241.395 431.349 249.244 408.991 239.976C408.991 239.976 415.546 231.669 424.812 233.142C434.078 234.614 443.139 230.447 436.044 218.674C434.787 216.579 433.921 214.231 433.496 211.768C444.015 216.06 446.326 223.963 443.786 232.54Z" fill="#C882FF"/>
<path d="M527.423 155.091C526.559 156.609 525.3 157.81 523.81 158.539C513.413 163.928 489.908 153.672 489.908 153.358C489.908 153.043 485.369 110.807 491.858 95.6208C493.079 92.7739 494.684 90.8879 496.774 90.4299C507.514 90.0707 516.731 94.0671 518.304 102.563C519.877 111.059 515.199 120.848 516.567 126.892C517.935 132.936 523.498 133.061 525.833 134.354C530.061 136.68 534.018 143.084 527.423 155.091Z" fill="#B25E47"/>
<path d="M523.81 158.539C513.413 163.928 489.908 153.672 489.908 153.358C489.908 153.043 485.369 110.807 491.858 95.6207C509.423 96.3212 512.34 103.425 511.021 113.268C509.62 123.73 503.229 138.072 517.141 148.4C521.335 151.526 523.22 155.082 523.81 158.539Z" fill="#B25E47"/>
<path d="M501.458 116.24C504.022 119.392 504.399 123.362 503.342 127.834C502.285 132.307 500.647 138.845 502.679 145.302" stroke="#683F1D" stroke-width="0.68" stroke-linecap="round" stroke-linejoin="round"/>
<path d="M513.247 112.262C513.115 118.252 511.469 122.374 511.002 128.014C510.535 133.654 513.714 136.905 517.736 138.638C519.405 139.401 520.73 140.857 521.423 142.688C522.115 144.519 522.118 146.576 521.431 148.409" stroke="#683F1D" stroke-width="0.68" stroke-linecap="round" stroke-linejoin="round"/>
<path d="M510.427 147.709C506.56 142.787 505.806 139.186 508.116 138.809C510.427 138.432 514.974 140.605 514.515 142.787C514.056 144.97 511.115 144.045 511.238 142.976" stroke="#683F1D" stroke-width="0.68" stroke-linecap="round" stroke-linejoin="round"/>
<path d="M492.37 176.51C481.392 182.796 473.404 176.788 472.372 170.124C471.7 165.76 472.093 155.701 472.323 145.248C472.437 139.779 472.519 134.184 472.372 129.262C472.372 128.49 472.372 127.745 472.372 127.008C472.372 95.8991 494.05 103.111 495.811 115.154C496.925 122.796 498.638 138.018 499.473 146.047C500.309 154.076 503.381 170.223 492.37 176.51Z" fill="#FEBD9D"/>
<path d="M472.339 145.248C472.453 139.779 472.535 134.184 472.388 129.262C472.388 128.49 472.388 127.745 472.388 127.008C477.778 126.721 486.315 126.433 486.315 126.433C487.888 138.566 481.58 146.397 472.339 145.248Z" fill="#F4A789"/>
<path d="M433.523 283.631C434.514 285.293 441.716 279.141 443.78 275.549L436.464 264.485C436.464 264.485 430.68 278.809 433.523 283.631Z" fill="#C6C3FF"/>
<path d="M451.303 253.95C460.315 269.029 464.493 273.789 465.141 280.066C465.788 286.344 463.387 301.925 457.022 304.556C450.656 307.188 435.966 296.151 435.409 293.627C434.852 291.103 441.824 292.208 445.085 293.923C445.085 293.923 438.858 284.763 438.858 274.498C438.858 271.867 430.24 266.703 430.24 266.703C430.24 266.703 437.375 243.218 451.303 253.95Z" fill="#FEBD9D"/>
<path d="M559.863 367.421C531.951 356.537 497.599 346.02 461.289 337.219V319.384C461.289 314.561 461.797 306.406 462.452 297.578C462.985 290.286 463.615 282.536 464.091 275.845C464.525 270.223 464.861 265.338 465.008 262.096L476.077 261.97L496.73 261.754L538.898 261.296L545.739 261.225C546.518 282.518 553.326 307.781 558.118 326.954C561.559 340.623 560.666 358.243 559.863 367.421Z" fill="#683F1D"/>
<path d="M536.161 296.77C533.383 306.514 536.341 316.204 541.715 319.383" stroke="#7F542D" stroke-width="0.68" stroke-linecap="round" stroke-linejoin="round"/>
<path d="M433.532 218.216L438.521 227.772L453.366 256.204" stroke="#7D77FF" stroke-width="0.68" stroke-linecap="round" stroke-linejoin="round"/>
<path d="M537.31 263.317C535.18 263.793 523.301 264.215 509.775 264.395C489.293 264.628 465.042 264.17 465.042 262.096C465.042 258.845 466.337 255.809 462.634 248.687C458.931 241.566 452.803 236.007 452.254 223.048C451.705 210.088 454.474 195.665 454.474 195.665L448.665 201.952L433.533 218.216L438.523 227.771L453.368 256.204C453.368 256.204 433.353 264.736 433.533 283.631C433.533 283.631 406.112 246.254 397.96 233.456C389.809 220.659 399.066 206.029 412.224 190.996C418.778 183.488 425.98 173.375 433.173 164.862C440.366 156.348 447.617 149.451 454.294 148.4C458.07 147.807 463.306 147.295 468.942 146.882C470.04 146.793 471.146 146.712 472.268 146.64C471.965 159.33 475.308 161.674 475.308 161.674C476.946 162.733 477.118 162.239 477.266 164.368C477.413 166.496 478.315 172.531 479.896 172.531C482.083 172.531 483.492 168.598 485.344 162.904C486.565 156.097 494.233 153.438 496.707 149.738C497.565 148.407 498.164 146.897 498.469 145.302H499.378C500.812 145.688 502.541 146.128 504.433 146.55C509.349 147.646 515.387 148.652 520.286 148.4C526.783 148.077 545.806 148.499 551.467 164.96C551.467 164.96 551.467 165.005 551.467 165.032C551.705 165.733 551.918 166.469 552.115 167.233C552.262 167.834 552.393 168.499 552.508 169.217C555.867 190.735 542.513 262.132 537.31 263.317Z" fill="#C6C3FF"/>
<path d="M518.961 207.035C507.819 211.319 504.837 228.185 507.36 234.974C509.883 241.763 501.273 245.086 493.056 245.086C483.593 245.086 472.344 255.998 477.162 271.606L525.499 247.358L518.961 207.035Z" fill="#C6C3FF"/>
<path d="M552.892 169.379C552.778 169.316 552.647 169.271 552.532 169.217C542.422 164.835 530.584 167.601 522.882 174.606C520.928 176.356 519.236 178.432 517.869 180.758C508.652 196.644 479.011 205.32 469.278 184.494C461.396 167.61 449.615 162.32 433.172 164.871C440.382 156.357 447.616 149.46 454.293 148.409C458.07 147.816 463.305 147.304 468.942 146.891C470.04 146.802 471.146 146.721 472.268 146.649C471.965 159.339 475.307 161.683 475.307 161.683C476.946 162.742 477.118 162.248 477.265 164.377C477.413 166.505 478.314 172.54 479.895 172.54C482.083 172.54 483.492 168.607 485.343 162.913C486.564 156.106 494.233 153.447 496.707 149.747C497.564 148.416 498.164 146.906 498.468 145.311H499.378C500.811 145.697 502.54 146.137 504.433 146.559C509.348 147.655 515.386 148.661 520.285 148.409C526.782 148.086 545.806 148.508 551.467 164.97C551.467 164.97 551.467 165.014 551.467 165.041C552.031 166.45 552.507 167.899 552.892 169.379Z" fill="#C6C3FF"/>
<path d="M482.584 178.521C483.53 178.521 484.296 177.681 484.296 176.644C484.296 175.608 483.53 174.767 482.584 174.767C481.638 174.767 480.872 175.608 480.872 176.644C480.872 177.681 481.638 178.521 482.584 178.521Z" fill="#7D77FF"/>
<path d="M478.941 175.764C479.449 180.811 478.023 189.72 476.934 198.728C475.844 207.735 473.247 220.129 476.934 232.854C480.621 245.58 481.448 249.487 481.546 251.04C481.71 253.797 479.793 256.95 484.561 259.123" stroke="#7D77FF" stroke-width="0.68" stroke-linecap="round" stroke-linejoin="round"/>
<path d="M475.303 161.674C470.748 160.488 467.503 166.577 465.767 171.723C465.594 156.851 467.233 150.017 468.937 146.882C470.641 143.748 472.353 144.341 472.353 144.341C472.304 145.149 472.28 145.912 472.263 146.64C471.96 159.303 475.303 161.674 475.303 161.674Z" fill="#7D77FF"/>
<path d="M504.481 152.406C503.269 160.874 498.427 172.549 498.427 172.549C498.427 172.549 494.576 167.772 491.872 164.161C489.169 160.551 487.604 161.144 485.318 162.922C486.539 156.115 494.207 153.456 496.682 149.756C497.539 148.425 498.139 146.915 498.443 145.32C498.764 143.813 498.908 142.268 498.869 140.722C500.225 140.955 501.483 141.64 502.474 142.682C503.464 143.724 504.139 145.074 504.407 146.55C504.771 148.479 504.797 150.466 504.481 152.406Z" fill="#7D77FF"/>
<path d="M429.842 271.005C430.743 265.67 436.945 256.348 446.785 251.445" stroke="#7D77FF" stroke-width="0.68" stroke-linecap="round" stroke-linejoin="round"/>
<path d="M420.817 206.155C422.262 206.247 423.66 206.752 424.872 207.619C427.33 209.19 430.337 212.307 433.524 218.216" stroke="#7D77FF" stroke-width="0.68" stroke-linecap="round" stroke-linejoin="round"/>
<path d="M454.477 195.665L455.944 188.786" stroke="#7D77FF" stroke-width="0.68" stroke-linecap="round" stroke-linejoin="round"/>
<path d="M448.668 201.925L433.536 218.216C430.35 212.307 427.31 209.19 424.885 207.619C428.809 205.688 430.743 207.448 432.644 208.984C437.346 212.81 441.778 197.668 448.668 201.925Z" fill="#C6C3FF"/>
<path d="M553.597 226.388C551.836 242.446 549.042 257.902 546.158 268.517C540.595 288.957 526.627 290.124 517.606 283.604C512.379 279.814 508.807 273.447 509.512 266.739C509.578 266.074 509.668 265.293 509.774 264.395C511.413 250.636 516.894 210.259 520.195 187.304C520.777 182.987 521.676 178.729 522.883 174.57C527.176 160.201 534.352 155.755 543.184 156.752C546.838 157.165 549.542 160.147 551.467 164.933C551.467 164.933 551.467 164.978 551.467 165.005C552.023 166.418 552.491 167.87 552.868 169.352C556.424 182.859 555.916 205.104 553.597 226.388Z" fill="#C6C3FF"/>
<path d="M553.55 226.388C551.789 242.446 548.995 257.901 546.111 268.517C540.548 288.957 526.58 290.124 517.56 283.604C519.25 281.819 521.366 280.593 523.663 280.066C533.847 277.964 539.917 269.406 538.41 251.444C537.23 237.812 548.184 229.576 553.55 226.388Z" fill="#C6C3FF"/>
<path d="M552.848 169.379C552.734 169.316 552.603 169.271 552.488 169.217C542.378 164.835 530.54 167.601 522.838 174.606C527.131 160.237 534.308 155.791 543.14 156.788C546.794 157.201 549.498 160.183 551.423 164.969C551.423 164.969 551.423 165.014 551.423 165.041C551.987 166.45 552.463 167.899 552.848 169.379Z" fill="#C6C3FF"/>
<path d="M512.186 245.086C514.562 227.125 517.921 203.101 520.149 187.304C520.731 182.987 521.63 178.729 522.837 174.57C523.736 171.418 524.991 168.401 526.572 165.589" stroke="#7D77FF" stroke-width="0.68" stroke-linecap="round" stroke-linejoin="round"/>
<path d="M442.829 319.374C438.519 320.272 434.153 313.223 432.711 308.885C431.269 304.547 442.78 302.598 442.78 302.598C442.78 302.598 446.524 316.007 442.829 319.374Z" fill="#C6C3FF"/>
<path d="M432.167 287.906C423.745 290.987 404 301.745 402.943 302.643C401.886 303.542 398.74 311.409 398.626 312.594C398.511 313.78 397.225 326.065 399.322 326.855C401.419 327.646 402.476 322.545 402.943 319.383C403.388 317.034 404.096 314.754 405.049 312.594C405.049 312.594 403.771 317.56 405.639 319.383C406.72 320.443 409.137 319.383 409.137 319.383C409.137 319.383 409.727 322.626 413.586 321.09C413.586 321.09 413.356 324.529 415.896 325.203C418.436 325.877 420.812 322.769 421.819 320.937C422.18 320.317 421.27 318.503 420.091 318.503C420.091 318.503 421.139 317.758 424.293 317.758C427.448 317.758 431.208 317.956 433.617 313.959C436.025 309.963 438.745 308.059 440.99 307.421L432.167 287.906Z" fill="#FEBD9D"/>
<path d="M398.685 312.594C398.562 313.788 397.284 326.065 399.382 326.855C401.479 327.646 402.536 322.545 403.003 319.383C403.448 317.034 404.155 314.754 405.108 312.594C405.108 312.594 403.83 317.56 405.698 319.383C406.78 320.443 409.197 319.383 409.197 319.383C409.197 319.383 409.786 322.625 413.645 321.09C413.645 321.09 413.416 324.529 415.956 325.203C418.495 325.876 420.871 322.769 421.879 320.937C422.239 320.317 421.33 318.503 420.15 318.503" stroke="#F4A789" stroke-width="0.68" stroke-linecap="round" stroke-linejoin="round"/>
<path d="M420.558 318.593C419.917 318.491 419.263 318.54 418.641 318.737" stroke="#F4A789" stroke-width="0.68" stroke-linecap="round" stroke-linejoin="round"/>
<path d="M419.231 316.465C418.6 318.261 417.814 321.009 418.125 321.799" stroke="#F4A789" stroke-width="0.68" stroke-linecap="round" stroke-linejoin="round"/>
<path d="M413.592 321.763C413.535 318.108 414.385 314.505 416.05 311.337" stroke="#F4A789" stroke-width="0.68" stroke-linecap="round" stroke-linejoin="round"/>
<path d="M409.129 319.383C408.515 316.689 410.407 309.837 411.923 307.843" stroke="#F4A789" stroke-width="0.68" stroke-linecap="round" stroke-linejoin="round"/>
<path d="M405.037 312.594C405.275 310.798 405.61 305.885 408.06 303.613" stroke="#F4A789" stroke-width="0.68" stroke-linecap="round" stroke-linejoin="round"/>
<path d="M533.712 285.93C530.066 288.032 521.324 291.642 510.625 295.737C483.204 306.218 442.92 319.859 442.814 319.374C442.666 318.701 439.127 301.009 426.985 289.217C426.985 289.217 483.318 259.707 501.367 250.466C512.206 244.916 528.788 235.486 537.718 244.458C538.046 244.781 538.357 245.122 538.652 245.472C548.278 256.581 546.288 278.665 533.712 285.93Z" fill="#C6C3FF"/>
<path d="M533.722 285.93C530.076 288.032 521.334 291.642 510.634 295.737C512.527 290.349 516.648 281.512 523.669 280.066C533.853 277.965 539.923 269.406 538.416 251.445C538.242 249.45 538.333 247.438 538.686 245.472C548.288 256.582 546.297 278.665 533.722 285.93Z" fill="#C6C3FF"/>
<path d="M426.985 289.217C426.985 289.217 483.318 259.707 501.367 250.466C506.545 247.816 513.033 244.278 519.391 242.284" stroke="#7D77FF" stroke-width="0.68" stroke-linecap="round" stroke-linejoin="round"/>
<path d="M438.811 287.134C445.619 296.285 451.255 312.594 451.255 312.594" stroke="#7D77FF" stroke-width="0.68" stroke-linecap="round" stroke-linejoin="round"/>
<path d="M500.182 90.5286C505.286 93.2228 509.505 104.996 500.469 112.262C491.432 119.527 495.553 102.177 495.774 101.844C495.995 101.512 496.282 90.9327 500.182 90.5286Z" fill="#EAC9FF"/>
<path d="M500.51 105.499C500.124 106.309 499.594 107.026 498.953 107.61C498.953 107.61 489.237 114.929 483.182 111.023C477.128 107.116 469.713 97.8478 469.713 97.8478C466.985 95.6206 465.494 93.8784 464.953 91.9296C464.69 90.9253 464.643 89.868 464.814 88.8402C465.314 85.3736 468.673 77.6143 479.364 80.4882C479.364 80.4882 481.241 77.8838 485.099 79.4554C488.958 81.027 492.317 85.6431 492.317 85.6431C492.317 85.6431 496.078 84.1792 500.182 90.5286C503.418 95.5398 502.329 101.997 500.51 105.499Z" fill="#B25E47"/>
<path d="M500.497 105.499C500.111 106.309 499.581 107.026 498.94 107.61C498.94 107.61 489.224 114.929 483.169 111.023C477.115 107.116 469.7 97.8478 469.7 97.8478C466.972 95.6206 465.481 93.8784 464.94 91.9296C465.432 86.2807 467.808 82.2394 472.814 83.9278C479.909 86.3256 483.333 90.6274 490.395 88.5528C490.395 88.5528 492.181 103.838 500.497 105.499Z" fill="#B25E47"/>
<path d="M468.46 86.9901C469.738 85.4634 472.351 85.5263 476.235 89.9538" stroke="#683F1D" stroke-width="0.68" stroke-linecap="round" stroke-linejoin="round"/>
<path d="M477.069 80.0122C479.99 80.6808 482.751 82.0148 485.171 83.9278" stroke="#683F1D" stroke-width="0.68" stroke-linecap="round" stroke-linejoin="round"/>
<path d="M492.319 85.6611C492.975 86.5514 493.526 87.5291 493.958 88.5709" stroke="#683F1D" stroke-width="0.68" stroke-linecap="round" stroke-linejoin="round"/>
<path d="M494.343 118.611C485.716 131.921 474.574 139.177 467.848 132.98C462.883 128.427 462.85 119.365 464.022 112.064C464.36 109.94 464.817 107.841 465.39 105.778C465.439 105.598 465.496 105.427 465.545 105.257C467.651 98.0723 470.764 87.2955 475.778 89.5316C475.778 89.5316 479.694 93.3754 487.117 91.7229C487.117 91.7229 483.307 106.99 491.934 108.786C491.934 108.786 495.744 103.398 500.127 106.263C504.51 109.128 504.559 118.494 494.343 118.611Z" fill="#FEBD9D"/>
<path d="M476.426 102.823C476.424 103.051 476.484 103.274 476.598 103.464C476.713 103.654 476.876 103.803 477.067 103.892C477.259 103.98 477.47 104.004 477.674 103.961C477.878 103.917 478.065 103.809 478.213 103.648C478.36 103.488 478.461 103.283 478.502 103.06C478.543 102.837 478.523 102.605 478.444 102.394C478.365 102.184 478.23 102.004 478.058 101.877C477.885 101.75 477.682 101.683 477.474 101.683C477.198 101.683 476.932 101.802 476.736 102.016C476.539 102.23 476.428 102.52 476.426 102.823Z" fill="#683F1D"/>
<path d="M469.254 102.823C469.253 103.051 469.313 103.274 469.427 103.464C469.541 103.654 469.705 103.803 469.896 103.892C470.088 103.98 470.299 104.004 470.503 103.961C470.707 103.917 470.894 103.809 471.042 103.648C471.189 103.488 471.29 103.283 471.331 103.06C471.372 102.837 471.352 102.605 471.273 102.394C471.194 102.184 471.059 102.004 470.887 101.877C470.714 101.75 470.511 101.683 470.303 101.683C470.026 101.683 469.761 101.802 469.565 102.016C469.368 102.23 469.257 102.52 469.254 102.823Z" fill="#683F1D"/>
<path d="M491.892 108.822C491.104 109.795 490.571 110.984 490.351 112.262" stroke="#F4A789" stroke-width="0.68" stroke-linecap="round" stroke-linejoin="round"/>
<path d="M493.038 112.747C494.857 108.256 498.773 107.987 501.026 109.99" stroke="#F4A789" stroke-width="0.68" stroke-linecap="round" stroke-linejoin="round"/>
<path d="M493.965 111.022C497.447 108.481 499.487 115.154 494.932 115.154" stroke="#F4A789" stroke-width="0.68" stroke-linecap="round" stroke-linejoin="round"/>
<path d="M467.109 97.8118C467.379 98.7638 472.975 98.2159 472.844 96.0696C472.631 93.1868 466.601 96.0067 467.109 97.8118Z" fill="#B25E47"/>
<path d="M477.035 95.9168C476.855 97.8477 482.262 99.5091 482.77 98.4943C483.278 97.4795 477.371 92.2527 477.035 95.9168Z" fill="#B25E47"/>
<path d="M470.107 109.181C469.943 107.385 470.811 105.365 471.991 104.907C473.171 104.449 474.998 103.2 474.588 98.5393" stroke="#F4A789" stroke-width="0.68" stroke-linecap="round" stroke-linejoin="round"/>
<path d="M471.355 112.747C473.452 112.747 476.721 111.004 477.245 110.295C477.245 110.295 477.491 115.818 474.64 116.213C472.239 116.554 471.355 112.747 471.355 112.747Z" fill="#FEFEFE" stroke="#F4A789" stroke-width="0.68" stroke-linecap="round" stroke-linejoin="round"/>
<path d="M495.077 121.674C496.882 121.674 498.346 120.069 498.346 118.09C498.346 116.111 496.882 114.507 495.077 114.507C493.272 114.507 491.808 116.111 491.808 118.09C491.808 120.069 493.272 121.674 495.077 121.674Z" fill="#FEFEFE"/>
<path d="M488.001 107.287C488.599 108.903 487.239 111.041 484.945 112.064C482.651 113.088 480.316 112.612 479.71 110.996C479.104 109.379 480.472 107.233 482.766 106.209C485.06 105.185 487.395 105.67 488.001 107.287Z" fill="#F4A789"/>
<path d="M468.192 111.238C467.536 112.477 465.808 112.792 464.013 112.136C464.352 110.012 464.809 107.912 465.382 105.85L465.758 106.074C467.905 107.403 468.995 109.729 468.192 111.238Z" fill="#F4A789"/>
<path d="M359.4 344.664L400.756 334.247L437.198 347.915L401.633 361.234L359.4 344.664Z" stroke="#1B1C1E" stroke-width="0.9" stroke-linecap="round" stroke-linejoin="round"/>
<path d="M383.278 336.159V344.664C383.278 347.493 389.914 349.783 398.107 349.783C406.299 349.783 412.944 347.493 412.944 344.664V336.159H383.278Z" fill="#1B1C1E" stroke="#1B1C1E" stroke-width="0.9" stroke-miterlimit="10"/>
<path d="M398.097 340.874C389.446 340.874 383.637 338.44 383.637 336.159C383.637 333.878 389.446 331.444 398.097 331.444C406.749 331.444 412.558 333.887 412.558 336.159C412.558 338.431 406.749 340.874 398.097 340.874Z" fill="#EEEEEE"/>
<path d="M398.107 331.849C406.84 331.849 412.198 334.363 412.198 336.159C412.198 337.956 406.84 340.47 398.107 340.47C389.373 340.47 384.015 337.956 384.015 336.159C384.015 334.363 389.373 331.849 398.107 331.849ZM398.107 331.04C389.914 331.04 383.278 333.33 383.278 336.159C383.278 338.988 389.914 341.278 398.107 341.278C406.299 341.278 412.944 338.988 412.944 336.159C412.944 333.33 406.299 331.04 398.107 331.04Z" fill="#1B1C1E"/>
<path d="M370.866 344.916C370.866 345.472 371.742 345.93 372.824 345.93C373.905 345.93 374.782 345.472 374.782 344.916C374.782 344.359 373.905 343.901 372.824 343.901C371.742 343.901 370.866 344.359 370.866 344.916Z" fill="#1B1C1E"/>
<path d="M399.966 356.626C399.966 357.183 400.843 357.641 401.924 357.641C403.006 357.641 403.874 357.183 403.874 356.626C403.874 356.069 402.997 355.611 401.924 355.611C400.851 355.611 399.966 356.069 399.966 356.626Z" fill="#1B1C1E"/>
<path d="M424.374 347.736C424.374 348.292 425.251 348.75 426.332 348.75C427.414 348.75 428.29 348.292 428.29 347.736C428.29 347.179 427.414 346.721 426.332 346.721C425.251 346.721 424.374 347.179 424.374 347.736Z" fill="#1B1C1E"/>
<path d="M1 307.421C30.42 306.416 62.601 305.796 96.1911 305.688C126.406 305.598 157.768 305.94 189.244 306.829C195.836 307.008 202.437 307.218 209.046 307.457C248.477 308.867 287.811 311.166 325.079 314.597C331.366 315.16 337.589 315.758 343.75 316.393C364.642 318.575 386.459 321.781 408.317 325.868C426.112 329.155 443.931 332.971 461.299 337.192C497.634 345.993 531.962 356.51 559.874 367.394C588.745 378.665 610.751 390.349 621 401" stroke="#1B1C1E" stroke-width="1.81" stroke-linecap="round" stroke-linejoin="round"/>
<path d="M361.79 355.082C348.559 362.59 270.9 384.718 270.9 384.718L263.789 377.004L218.401 327.799C218.401 327.799 261.716 318.261 269.794 319.33C276.545 320.228 337.114 337.929 356.465 348.517C360.25 350.636 362.765 354.534 361.79 355.082Z" stroke="#1B1C1E" stroke-width="0.9" stroke-linecap="round" stroke-linejoin="round"/>
<path d="M220.407 335.441C252.661 329.46 265.368 325.562 269.924 326.927C274.479 328.292 336.031 347.439 334.998 347.736C306.103 356.034 254.595 369.244 254.595 369.244L220.407 335.441Z" stroke="#1B1C1E" stroke-width="0.9" stroke-linecap="round" stroke-linejoin="round"/>
<path d="M361.831 355.082C348.6 362.59 270.942 384.718 270.942 384.718L263.83 377.004L356.506 348.571C360.291 350.636 362.806 354.534 361.831 355.082Z" fill="#1B1C1E"/>
<path d="M173.568 302.617C165.522 286.236 170.356 259.348 183.907 257.336C197.458 255.324 215.424 274.543 222.413 265.006C229.999 254.615 223.83 204.476 223.887 195.414L257.879 191.633C257.879 191.633 251.399 259.752 260.279 267.682C265.482 272.325 271.569 271.678 275.215 263.29C278.492 255.675 283.121 249.541 291.42 256.6C291.42 256.6 296.073 244.736 314.097 249.415C332.121 254.094 321.7 276.878 317.506 279.95C317.506 279.95 325.698 287.879 323.101 297.911C320.504 307.942 307.289 312.549 307.289 312.549C307.289 312.549 312.77 326.245 301.808 330.61C290.846 334.974 283.735 333.439 276.534 330.61C269.332 327.781 256.871 320.731 249.858 331.553C242.845 342.374 194.156 344.566 173.568 302.617Z" fill="#FEFEFE" stroke="#1B1C1E" stroke-width="1.81" stroke-linecap="round" stroke-linejoin="round"/>
<path d="M220.373 213.986C213.704 216.061 210.321 223.865 208.551 231.597C206.782 239.33 207.486 240.623 205.52 238.728C203.414 236.699 198.851 222.267 201.301 200.246C203.119 183.892 209.829 176.339 213.696 173.304C214.803 186.82 217.021 200.199 220.324 213.277C220.353 213.512 220.369 213.749 220.373 213.986Z" fill="#1B1C1E" stroke="#1B1C1E" stroke-width="1.81" stroke-linecap="round" stroke-linejoin="round"/>
<path d="M275.448 238.728C273.482 240.623 274.162 239.312 272.409 231.597C270.655 223.883 267.264 216.061 260.595 213.986C260.597 213.752 260.611 213.518 260.636 213.286C263.95 200.201 266.171 186.812 267.272 173.286C271.139 176.348 277.849 183.901 279.667 200.228C282.109 222.266 277.562 236.698 275.448 238.728Z" fill="#1B1C1E" stroke="#1B1C1E" stroke-width="1.81" stroke-linecap="round" stroke-linejoin="round"/>
<path d="M267.289 173.277C266.188 186.803 263.967 200.192 260.653 213.277C260.341 214.444 260.038 215.594 259.719 216.707H221.27C220.951 215.585 220.64 214.426 220.336 213.25C217.034 200.171 214.815 186.793 213.709 173.277C211.939 152.621 212.316 129.541 216.429 107.403C216.961 104.556 217.535 101.826 218.149 99.2309C226.129 65.3198 240.499 51.3998 240.499 51.3998C240.499 51.3998 254.877 65.3198 262.848 99.2309C263.463 101.826 264.045 104.556 264.569 107.403C268.682 129.541 269.067 152.585 267.289 173.277Z" fill="#FEFEFE" stroke="#1B1C1E" stroke-width="1.81" stroke-linecap="round" stroke-linejoin="round"/>
<path d="M262.836 99.2309H218.136C226.116 65.3198 240.486 51.3998 240.486 51.3998C240.486 51.3998 254.864 65.3198 262.836 99.2309Z" fill="#1B1C1E" stroke="#1B1C1E" stroke-width="0.9" stroke-miterlimit="10"/>
<path d="M251.173 140.156C249.773 141.698 248.108 142.922 246.274 143.757C244.441 144.592 242.475 145.022 240.49 145.022C238.505 145.022 236.539 144.592 234.705 143.757C232.872 142.922 231.207 141.698 229.807 140.156C226.985 137.045 225.402 132.836 225.402 128.45C225.402 124.063 226.985 119.854 229.807 116.743C231.207 115.201 232.872 113.977 234.705 113.142C236.539 112.307 238.505 111.877 240.49 111.877C242.475 111.877 244.441 112.307 246.274 113.142C248.108 113.977 249.773 115.201 251.173 116.743C252.088 117.743 252.882 118.869 253.533 120.093C255.214 123.254 255.895 126.936 255.468 130.565C255.041 134.194 253.531 137.566 251.173 140.156Z" fill="#1B1C1E" stroke="#FEFEFE" stroke-width="1.81" stroke-linecap="round" stroke-linejoin="round"/>
<path d="M253.542 120.093L232.871 142.752C231.756 142.032 230.729 141.16 229.816 140.156C228.903 139.153 228.112 138.024 227.464 136.797L248.126 114.148C249.241 114.867 250.268 115.74 251.182 116.743C252.097 117.744 252.891 118.87 253.542 120.093Z" fill="#FEFEFE"/>
<path d="M240.486 169.756C234.03 179.15 230.654 226.667 240.486 239.5C250.333 226.658 246.933 179.15 240.486 169.756Z" fill="#1B1C1E" stroke="#1B1C1E" stroke-width="0.9" stroke-miterlimit="10"/>
<path d="M251.173 140.156C249.773 141.698 248.108 142.922 246.274 143.757C244.441 144.592 242.475 145.022 240.49 145.022C238.505 145.022 236.539 144.592 234.705 143.757C232.872 142.922 231.207 141.698 229.807 140.156C226.985 137.045 225.402 132.836 225.402 128.45C225.402 124.063 226.985 119.854 229.807 116.743C231.207 115.201 232.872 113.977 234.705 113.142C236.539 112.307 238.505 111.877 240.49 111.877C242.475 111.877 244.441 112.307 246.274 113.142C248.108 113.977 249.773 115.201 251.173 116.743C252.088 117.743 252.882 118.869 253.533 120.093C255.214 123.254 255.895 126.936 255.468 130.565C255.041 134.194 253.531 137.566 251.173 140.156V140.156Z" stroke="#1B1C1E" stroke-width="1.81" stroke-linecap="round" stroke-linejoin="round"/>
<path d="M317.451 279.958C315.808 281.3 314.089 282.527 312.306 283.631" stroke="#1B1C1E" stroke-width="1.81" stroke-linecap="round" stroke-linejoin="round"/>
<path d="M303.524 286.344C299.247 281.575 288.834 283.703 287.187 294.687C285.541 305.67 294.332 315.261 307.243 312.594" stroke="#1B1C1E" stroke-width="1.81" stroke-linecap="round" stroke-linejoin="round"/>
<path d="M235.184 242.32C236.823 255.037 236.167 277.12 236.069 278.521" stroke="#1B1C1E" stroke-width="1.81" stroke-linecap="round" stroke-linejoin="round"/>
<path d="M256.769 296.833C250.379 289.505 247.331 284.763 247.331 253.636" stroke="#1B1C1E" stroke-width="1.81" stroke-linecap="round" stroke-linejoin="round"/>
<path d="M140.104 246.245L231.625 285.544L275.939 382.41L177.438 334.794L135.074 248.607L140.104 246.245Z" fill="#1B1C1E"/>
<path d="M135.074 248.607L226.594 287.906L270.909 384.772L172.416 337.156L135.074 248.607Z" fill="#EEEEEE" stroke="#1B1C1E" stroke-width="0.9" stroke-linecap="round" stroke-linejoin="round"/>
</svg>
