<svg width="589" height="503" viewBox="0 0 589 503" fill="none" xmlns="http://www.w3.org/2000/svg">
<path d="M201.502 53.3768C203.314 51.8883 205.138 50.4246 206.995 48.998" stroke="#1B1C1E" stroke-width="3" stroke-linecap="round" stroke-linejoin="round"/>
<path d="M217.981 41.1089C248.223 20.579 283.088 9.67768 318.668 9.62624C333.565 9.61903 348.41 11.5385 362.896 15.3447" stroke="#1B1C1E" stroke-width="3" stroke-linecap="round" stroke-linejoin="round" stroke-dasharray="11.57 11.57"/>
<path d="M369.182 17.1433C371.364 17.8049 373.538 18.5078 375.705 19.2521" stroke="#1B1C1E" stroke-width="3" stroke-linecap="round" stroke-linejoin="round"/>
<path d="M218.876 489.272C216.939 488.032 215.014 486.667 213.122 485.315" stroke="#1B1C1E" stroke-width="3" stroke-linecap="round" stroke-linejoin="round"/>
<path d="M202.125 476.855C162.292 444.169 132.176 395.208 118.178 337.775" stroke="#1B1C1E" stroke-width="3" stroke-linecap="round" stroke-linejoin="round" stroke-dasharray="11.9 11.9"/>
<path d="M116.479 330.606C115.958 328.199 115.463 325.78 114.995 323.349" stroke="#1B1C1E" stroke-width="3" stroke-linecap="round" stroke-linejoin="round"/>
<path d="M525.773 300.351C525.494 302.832 525.184 305.288 524.845 307.719" stroke="#1B1C1E" stroke-width="3" stroke-linecap="round" stroke-linejoin="round"/>
<path d="M522.387 322.679C519.1 340.043 514.275 357.014 507.98 373.352" stroke="#1B1C1E" stroke-width="3" stroke-linecap="round" stroke-linejoin="round" stroke-dasharray="12.25 12.25"/>
<path d="M505.194 380.36C504.25 382.618 503.284 384.855 502.295 387.071" stroke="#1B1C1E" stroke-width="3" stroke-linecap="round" stroke-linejoin="round"/>
<path d="M164.319 391.413L102.095 401.485C100.983 401.659 99.8517 401.375 98.9204 400.688C97.9891 400 97.3243 398.958 97.0548 397.764L89.8516 360.947C89.7337 360.371 89.7272 359.775 89.8326 359.196C89.9379 358.617 90.1527 358.068 90.4631 357.586C90.7735 357.103 91.1727 356.697 91.635 356.394C92.0973 356.09 92.6125 355.896 93.1474 355.824L155.372 345.764C156.484 345.59 157.615 345.874 158.546 346.562C159.477 347.249 160.142 348.291 160.412 349.485L167.615 386.215C167.744 386.796 167.758 387.401 167.658 387.989C167.558 388.576 167.345 389.134 167.034 389.625C166.722 390.117 166.319 390.53 165.851 390.838C165.384 391.146 164.861 391.342 164.319 391.413Z" fill="#EEEEEE" stroke="#1B1C1E" stroke-width="2" stroke-linecap="round" stroke-linejoin="round"/>
<path d="M99.0594 361.828C99.7277 361.691 136.152 374.741 136.152 374.741L153.14 351.271" stroke="#1B1C1E" stroke-width="2" stroke-linecap="round" stroke-linejoin="round"/>
<path d="M108.46 388.621L128.733 372.099" stroke="#1B1C1E" stroke-width="2" stroke-linecap="round" stroke-linejoin="round"/>
<path d="M145.892 372.099L161.318 377.445" stroke="#1B1C1E" stroke-width="2" stroke-linecap="round" stroke-linejoin="round"/>
<path d="M190.471 448.573L174.275 451.909C174.057 451.953 173.853 452.06 173.686 452.219L163.492 461.969C163.318 462.132 163.105 462.239 162.879 462.279C162.652 462.318 162.42 462.288 162.207 462.191C161.995 462.095 161.812 461.937 161.677 461.733C161.542 461.53 161.461 461.29 161.442 461.039L159.71 431.653C159.692 431.405 159.74 431.157 159.846 430.937C159.952 430.718 160.113 430.536 160.31 430.412C160.482 430.303 160.677 430.246 160.876 430.246C161.075 430.246 161.27 430.303 161.442 430.412L190.799 446.042C191.034 446.165 191.227 446.367 191.35 446.618C191.473 446.869 191.519 447.157 191.483 447.439C191.446 447.721 191.328 447.984 191.146 448.187C190.964 448.391 190.727 448.526 190.471 448.573Z" fill="#FEFEFE" stroke="#1B1C1E" stroke-width="2" stroke-linecap="round" stroke-linejoin="round"/>
<path d="M190.471 448.573L174.275 451.909C174.057 451.953 173.853 452.06 173.686 452.219L160.31 430.412C160.482 430.303 160.677 430.246 160.876 430.246C161.075 430.246 161.27 430.303 161.442 430.412L190.799 446.042C191.034 446.165 191.227 446.367 191.35 446.618C191.473 446.869 191.519 447.157 191.483 447.439C191.446 447.721 191.328 447.984 191.146 448.187C190.964 448.391 190.727 448.526 190.471 448.573Z" fill="#1B1C1E" stroke="#1B1C1E" stroke-width="2" stroke-linecap="round" stroke-linejoin="round"/>
<mask id="mask0_0_2819" style="mask-type:alpha" maskUnits="userSpaceOnUse" x="1" y="94" width="242" height="187">
<rect x="1" y="94.2744" width="241.241" height="186.068" fill="#C4C4C4"/>
</mask>
<g mask="url(#mask0_0_2819)">
<path d="M191.66 273.731C196.847 276.584 203.563 271.25 211.027 264.031L202.94 256.092C202.94 256.092 190.255 269.042 191.66 273.731Z" fill="#EAC9FF"/>
<path d="M260.804 239.581L242.082 281.372H202.702L196.145 261.302L218.434 239.581H260.804Z" fill="#FEBD9D"/>
<path d="M230.292 239.581L211.854 271.138" stroke="#F4A789" stroke-width="0.75" stroke-linecap="round" stroke-linejoin="round"/>
<path d="M223.27 242.844C209.917 251.192 191.66 273.731 191.66 273.731L186.756 284.399L183.902 290.601H87.0201C84.755 281.658 82.8069 270.01 81.3572 260.57C80.2246 253.264 79.4998 247.285 79.2053 244.94L79.0807 243.886C76.6117 246.28 75.4111 246.367 75.4111 246.367L70.8808 259.478L70.4617 260.719C54.379 248.934 24.9544 246.85 24.9544 246.85L28.9071 232.226C27.7196 229.219 27.388 225.89 27.9557 222.674C28.6013 219.015 37.4582 202.045 46.3829 187.805C49.9018 182.012 53.8047 176.51 58.0599 171.344C58.411 170.947 58.7734 170.563 59.1359 170.203C69.9068 159.349 87.7563 160.924 99.4899 162.09C101.234 162.264 102.888 162.388 104.428 162.463C107.895 162.662 111.369 162.662 114.836 162.463C117.679 162.301 119.242 162.066 119.242 162.066C119.605 160.254 119.944 158.344 120.284 156.248C122.402 142.69 123.591 124.591 121.7 112.696L151.51 127.271C152.019 133.2 154.013 146.213 155.383 154.772C156.153 159.56 156.708 162.959 156.708 162.959C159.109 162.475 161.374 162.041 163.504 161.644C193.766 156.025 201.559 158.133 209.94 174.296C210.166 174.718 210.381 175.165 210.608 175.636C215.773 186.8 219.295 209.128 221.254 224.907C222.647 235.277 223.27 242.844 223.27 242.844Z" fill="#EAC9FF"/>
<path d="M223.27 242.844C210.178 251.043 192.339 272.9 191.671 273.706C191.909 273.161 195.805 264.329 196.201 261.302C196.598 258.275 195.216 249.319 193.076 240.896L221.39 224.957C222.647 235.277 223.27 242.844 223.27 242.844Z" fill="#EAC9FF"/>
<path d="M122.447 247.669C122.232 259.553 96.8168 261.227 81.391 260.57C80.2584 253.264 79.5335 247.285 79.2391 244.94L79.1145 243.886C84.7203 237.657 89.3538 230.461 92.8301 222.587C101.891 229.36 90.2705 236.319 89.8288 239.581C88.6282 248.525 122.753 230.7 122.447 247.669Z" fill="#EAC9FF"/>
<path d="M210.721 175.686C201.887 172.324 191.966 172.436 185.091 184.456C169.608 211.522 140.546 232.635 111.473 200.681C107.497 196.195 103.148 192.125 98.4819 188.524C81.3006 175.648 66.7695 178.253 46.4509 187.792C49.9698 182 53.8726 176.498 58.1278 171.332C58.4789 170.935 58.8414 170.55 59.2038 170.19C69.9747 159.337 87.8243 160.912 99.5579 162.078C101.302 162.252 102.956 162.376 104.496 162.45C107.963 162.65 111.437 162.65 114.904 162.45C117.747 162.289 119.31 162.053 119.31 162.053C119.673 160.242 120.012 158.332 120.352 156.235C122.47 142.677 123.659 124.579 121.768 112.683L151.578 127.258C152.087 133.188 154.081 146.2 155.451 154.759C156.221 159.547 156.776 162.946 156.776 162.946C159.177 162.462 161.442 162.028 163.572 161.631C193.834 156.012 201.627 158.121 210.008 174.284C210.28 174.768 210.495 175.214 210.721 175.686Z" fill="#EAC9FF"/>
<path d="M163.617 161.693C163.526 170.079 162.7 185.361 159.37 196.165C155.066 210.183 149.992 204.489 144.42 198.956C139.38 193.92 121.009 177.162 104.507 162.487C107.974 162.687 111.449 162.687 114.916 162.487C117.758 162.326 119.321 162.09 119.321 162.09C119.684 160.279 120.024 158.369 120.363 156.273C132.335 155.417 146.696 154.573 155.474 154.796C156.244 159.585 156.799 162.983 156.799 162.983C159.177 162.475 161.442 162.09 163.617 161.693Z" fill="#C882FF"/>
<path d="M151.883 193.747C151.883 193.747 126.377 174.743 114.916 162.475C117.758 162.314 119.321 162.078 119.321 162.078C122.051 148.346 123.954 126.415 121.779 112.708L141.158 122.173L151.589 127.283C151.963 131.662 153.163 139.973 154.307 147.441C155.576 155.702 156.787 162.971 156.787 162.971C157.716 187.061 151.883 193.747 151.883 193.747Z" fill="#FEBD9D"/>
<path d="M191.66 273.731C191.898 273.185 195.794 264.353 196.19 261.327C196.586 258.3 195.205 249.344 193.064 240.921C192.951 240.487 192.838 240.04 192.713 239.606" stroke="#C882FF" stroke-width="0.75" stroke-linecap="round" stroke-linejoin="round"/>
<path d="M154.296 147.478C134.17 148.83 136.435 125.137 136.605 124.542L141.135 122.21L151.566 127.32C151.951 131.699 153.152 140.01 154.296 147.478Z" fill="#F4A789"/>
<path d="M25.0222 246.826C24.4559 248.649 24.4559 250.634 37.0842 254.529L39.0323 245.461C39.0323 245.461 27.5479 242.062 25.0222 246.826Z" fill="#EAC9FF"/>
<path d="M31.9423 242.05C28.9749 252.643 18.6231 288.12 18.6231 288.12C15.8143 301.133 51.049 309.63 63.5868 287.525L70.4843 251.936C59.0854 243.812 45.4496 240.314 31.9423 242.05Z" fill="#FEBD9D"/>
<path d="M89.8741 228.579C89.8301 228.649 89.7922 228.724 89.7608 228.802C88.2658 231.419 86.6009 234.086 84.7887 236.84L84.6642 237.026C82.9651 239.454 81.1106 241.746 79.1145 243.886C76.6455 246.28 75.4449 246.367 75.4449 246.367L70.5295 260.694C70.0311 260.334 69.5215 259.974 68.9892 259.627C60.0191 253.673 47.6739 250.398 38.4093 248.662C35.3627 248.091 32.6445 247.694 30.4812 247.421C27.1514 246.987 25.0901 246.838 25.0901 246.838L29.0428 232.213C27.8553 229.207 27.5237 225.878 28.0915 222.662C28.737 219.002 37.5939 202.033 46.5187 187.793C50.0376 182 53.9404 176.498 58.1956 171.332C58.5467 170.935 58.9091 170.55 59.2716 170.191C74.5388 162.363 94.3818 164.286 98.2892 186.85C98.3911 187.408 98.4817 187.966 98.5497 188.524C100.724 203.546 97.3378 215.467 89.8741 228.579Z" fill="#EAC9FF"/>
<path d="M98.4819 188.524C81.3006 175.649 66.7695 178.253 46.4509 187.793C49.9698 182 53.8726 176.498 58.1278 171.332C58.4789 170.935 58.8413 170.55 59.2038 170.191C74.471 162.363 94.314 164.286 98.2214 186.85C98.3233 187.445 98.4139 188.003 98.4819 188.524Z" fill="#EAC9FF"/>
<path d="M35.2494 235.314C45.8844 235.314 56.2815 240.078 58.037 240.983" stroke="#C882FF" stroke-width="0.75" stroke-linecap="round" stroke-linejoin="round"/>
<path d="M79.1145 243.886C81.1105 241.746 82.9651 239.454 84.6642 237.026L84.7887 236.84C86.579 234.262 88.2388 231.579 89.7608 228.802C89.7922 228.724 89.8301 228.649 89.8741 228.579C91.0746 226.358 92.0713 224.311 92.8301 222.587C93.453 221.247 93.9061 220.106 94.2232 219.263" stroke="#C882FF" stroke-width="0.75" stroke-linecap="round" stroke-linejoin="round"/>
<path d="M171.183 233.528C171.59 239.395 168.442 240.896 168.442 240.896C168.872 255.161 165.044 261.984 158.679 263.795C152.314 265.606 135.868 269.427 135.868 269.427C134.164 270.186 132.52 271.099 130.953 272.156C129.118 273.297 126.842 274.761 124.158 276.497C115.98 281.732 103.103 286.619 87.8015 295.451C60.6874 311.106 41.3654 302.621 40.0743 286.011C37.7412 255.608 72.9986 253.623 85.8761 251.279C95.2086 249.567 109.66 245.511 118.619 243.241C122.017 242.397 124.565 241.802 125.766 241.678C130.07 241.256 138.994 236.096 154.658 230.7C170.322 225.304 182.973 222.178 182.973 225.961C182.973 229.744 171.183 233.528 171.183 233.528Z" fill="#FEBD9D"/>
<path d="M154.681 230.7C170.333 225.279 182.995 222.178 182.995 225.961C182.995 229.745 171.137 233.565 171.137 233.565C171.545 239.433 168.396 240.934 168.396 240.934C168.827 255.199 164.999 262.021 158.633 263.832" stroke="#F4A789" stroke-width="0.75" stroke-linecap="round" stroke-linejoin="round"/>
<path d="M46.6433 265.432C53.4388 258.225 64.323 255.112 73.5196 253.35" stroke="#F4A789" stroke-width="0.75" stroke-linecap="round" stroke-linejoin="round"/>
<path d="M130.953 272.156C129.118 273.297 126.842 274.761 124.157 276.497C117.849 268.794 114.576 256.861 118.619 243.204C122.017 242.36 124.565 241.765 125.766 241.641C122.844 250.386 122.3 264.651 130.953 272.156Z" fill="#683F1D"/>
<path d="M171.182 233.528L161.499 236.964" stroke="#F4A789" stroke-width="0.75" stroke-linecap="round" stroke-linejoin="round"/>
<path d="M168.442 240.896L162.484 243.266" stroke="#F4A789" stroke-width="0.75" stroke-linecap="round" stroke-linejoin="round"/>
<path d="M163.13 250.113L168.204 248.599" stroke="#F4A789" stroke-width="0.75" stroke-linecap="round" stroke-linejoin="round"/>
<path d="M128.665 259.23C128.665 261.004 128.185 262.738 127.285 264.213C126.385 265.688 125.107 266.837 123.61 267.516C122.114 268.195 120.468 268.372 118.879 268.026C117.291 267.68 115.832 266.826 114.686 265.572C113.541 264.318 112.761 262.72 112.445 260.98C112.129 259.24 112.292 257.437 112.911 255.798C113.531 254.159 114.581 252.759 115.927 251.773C117.274 250.788 118.857 250.262 120.477 250.262C122.648 250.262 124.731 251.207 126.267 252.889C127.802 254.57 128.665 256.852 128.665 259.23Z" fill="#FEFEFE" stroke="#683F1D" stroke-linecap="round" stroke-linejoin="round"/>
</g>
<path d="M242.082 93.2453V278.42H1V93.2453C0.998516 90.7926 1.43832 88.3636 2.29426 86.0972C3.15021 83.8308 4.40553 81.7713 5.98849 80.0364C7.57146 78.3015 9.45102 76.9253 11.5198 75.9863C13.5886 75.0473 15.806 74.5641 18.0454 74.5641H225.037C227.276 74.5641 229.494 75.0473 231.563 75.9863C233.631 76.9253 235.511 78.3015 237.094 80.0364C238.677 81.7713 239.932 83.8308 240.788 86.0972C241.644 88.3636 242.084 90.7926 242.082 93.2453Z" stroke="#1B1C1E" stroke-width="2" stroke-linecap="round" stroke-linejoin="round"/>
<path d="M242.082 93.2453V94.0764H1V93.2453C0.998516 90.7926 1.43832 88.3636 2.29426 86.0972C3.15021 83.8308 4.40553 81.7713 5.98849 80.0364C7.57146 78.3015 9.45102 76.9253 11.5198 75.9863C13.5886 75.0473 15.806 74.5641 18.0454 74.5641H225.037C227.276 74.5641 229.494 75.0473 231.563 75.9863C233.631 76.9253 235.511 78.3015 237.094 80.0364C238.677 81.7713 239.932 83.8308 240.788 86.0972C241.644 88.3636 242.084 90.7926 242.082 93.2453Z" stroke="#1B1C1E" stroke-width="2" stroke-linecap="round" stroke-linejoin="round"/>
<path d="M209.453 84.3264C209.453 84.9987 209.271 85.6558 208.93 86.2147C208.589 86.7737 208.104 87.2093 207.537 87.4665C206.97 87.7238 206.346 87.7911 205.744 87.66C205.142 87.5288 204.589 87.2051 204.155 86.7298C203.721 86.2544 203.425 85.6488 203.306 84.9895C203.186 84.3302 203.247 83.6468 203.482 83.0257C203.717 82.4047 204.115 81.8739 204.625 81.5004C205.136 81.1269 205.736 80.9276 206.349 80.9276C206.757 80.9276 207.16 81.0155 207.537 81.1863C207.913 81.3571 208.256 81.6075 208.544 81.9231C208.832 82.2387 209.06 82.6134 209.216 83.0257C209.372 83.4381 209.453 83.8801 209.453 84.3264Z" fill="#1B1C1E"/>
<path d="M216.463 87.7253C218.177 87.7253 219.567 86.2036 219.567 84.3264C219.567 82.4493 218.177 80.9276 216.463 80.9276C214.749 80.9276 213.36 82.4493 213.36 84.3264C213.36 86.2036 214.749 87.7253 216.463 87.7253Z" fill="#1B1C1E"/>
<path d="M229.681 84.3264C229.681 84.9992 229.498 85.6568 229.157 86.216C228.815 86.7752 228.33 87.2109 227.762 87.4677C227.195 87.7246 226.57 87.7912 225.968 87.659C225.365 87.5269 224.812 87.202 224.379 86.7254C223.945 86.2488 223.651 85.642 223.532 84.9819C223.414 84.3218 223.477 83.638 223.714 83.0172C223.95 82.3963 224.35 81.8664 224.861 81.4944C225.373 81.1224 225.974 80.9251 226.589 80.9276C226.996 80.9276 227.399 81.0156 227.774 81.1866C228.15 81.3575 228.492 81.6081 228.779 81.9238C229.066 82.2396 229.294 82.6144 229.448 83.0267C229.603 83.439 229.682 83.8807 229.681 84.3264Z" fill="#1B1C1E"/>
<path d="M183.584 246.702C187.458 242.199 193.925 241.641 193.925 241.641L201.411 250.113C201.411 250.113 203.541 225.093 193.925 190.77C192.101 207.528 186.472 234.496 183.584 246.702Z" fill="#1B1C1E" stroke="#1B1C1E" stroke-linecap="round" stroke-linejoin="round"/>
<path d="M257.452 185.684C268.268 223.27 267.747 250.113 267.747 250.113H201.411C201.411 250.113 192.475 212.813 193.925 190.77C193.925 190.77 192.668 185.572 196.825 185.113C200.981 184.654 257.452 185.684 257.452 185.684Z" fill="#EEEEEE" stroke="#1B1C1E" stroke-linecap="round" stroke-linejoin="round"/>
<path d="M204.299 185.312C204.294 185.208 204.294 185.105 204.299 185.002C204.396 183.998 204.756 183.046 205.335 182.261C205.915 181.477 206.691 180.893 207.567 180.581C208.444 180.269 209.384 180.242 210.274 180.503C211.164 180.764 211.967 181.302 212.584 182.052C213.201 182.801 213.606 183.731 213.75 184.728C213.895 185.725 213.773 186.747 213.398 187.669C213.024 188.591 212.414 189.375 211.641 189.925C210.868 190.476 209.966 190.769 209.045 190.77" stroke="#1B1C1E" stroke-linecap="round" stroke-linejoin="round"/>
<path d="M238.005 185.312C238.127 184.318 238.508 183.383 239.101 182.62C239.695 181.857 240.477 181.296 241.354 181.007C242.23 180.717 243.164 180.71 244.045 180.986C244.925 181.262 245.714 181.81 246.317 182.565C246.921 183.319 247.313 184.247 247.448 185.239C247.582 186.231 247.453 187.245 247.076 188.158C246.698 189.072 246.089 189.848 245.32 190.392C244.551 190.936 243.655 191.227 242.739 191.229C241.944 191.227 241.163 190.996 240.474 190.559" stroke="#1B1C1E" stroke-linecap="round" stroke-linejoin="round"/>
<path d="M217.834 185.088C217.886 183.728 218.401 182.438 219.277 181.472C220.152 180.506 221.326 179.933 222.568 179.866C223.875 180.015 225.085 180.688 225.965 181.757C226.845 182.826 227.332 184.214 227.332 185.653C227.332 187.092 226.845 188.48 225.965 189.549C225.085 190.617 223.875 191.291 222.568 191.44C221.5 191.421 220.475 190.98 219.68 190.199" stroke="#1B1C1E" stroke-linecap="round" stroke-linejoin="round"/>
<path d="M227.937 185.213C228.056 184.22 228.434 183.287 229.026 182.524C229.617 181.76 230.397 181.2 231.271 180.909C232.146 180.619 233.078 180.61 233.957 180.885C234.836 181.159 235.624 181.705 236.227 182.458C236.83 183.21 237.222 184.136 237.357 185.127C237.492 186.117 237.364 187.128 236.987 188.04C236.611 188.952 236.003 189.727 235.235 190.27C234.468 190.813 233.573 191.103 232.659 191.105" stroke="#1B1C1E" stroke-linecap="round" stroke-linejoin="round"/>
<path d="M253.895 197.766H207.414V203.584H253.895V197.766Z" stroke="#1B1C1E" stroke-linecap="round" stroke-linejoin="round"/>
<path d="M218.932 243.774L218.343 238.875L215.353 213.656L214.855 209.513" stroke="#1B1C1E" stroke-linecap="round" stroke-linejoin="round"/>
<path d="M234.018 243.774L233.396 238.527L230.473 213.979L229.941 209.513" stroke="#1B1C1E" stroke-linecap="round" stroke-linejoin="round"/>
<path d="M245.039 209.501L249.105 243.787" stroke="#1B1C1E" stroke-linecap="round" stroke-linejoin="round"/>
<path d="M254.394 216.36H230.757H215.671H209.056" stroke="#1B1C1E" stroke-linecap="round" stroke-linejoin="round"/>
<path d="M256.693 231.332H232.535H217.449H211.344" stroke="#1B1C1E" stroke-linecap="round" stroke-linejoin="round"/>
<path d="M219.974 210.691C212.477 214.884 208.864 232.362 221.583 233.528C240.327 235.24 241.222 209.959 224.799 212.341" fill="#EEEEEE"/>
<path d="M219.974 210.691C212.477 214.884 208.864 232.362 221.583 233.528C240.327 235.24 241.222 209.959 224.799 212.341" stroke="#1B1C1E" stroke-width="2" stroke-linecap="round" stroke-linejoin="round"/>
<path d="M232.535 231.333H217.449L215.671 216.36H230.757L232.535 231.333Z" fill="#1B1C1E"/>
<path d="M259.638 229.075C259.955 234.769 269.831 228.504 269.151 223.518C268.472 218.531 259.264 222.476 259.638 229.075Z" fill="#FEBD9D" stroke="#F4A789" stroke-width="0.75" stroke-linecap="round" stroke-linejoin="round"/>
<path d="M257.961 221.409C258.324 227.115 269.446 220.851 268.721 215.852C267.996 210.853 257.542 214.822 257.961 221.409Z" fill="#FEBD9D" stroke="#F4A789" stroke-width="0.75" stroke-linecap="round" stroke-linejoin="round"/>
<path d="M257.18 215.69C257.565 221.384 269.491 215.12 268.71 210.133C267.928 205.147 256.738 209.091 257.18 215.69Z" fill="#FEBD9D" stroke="#F4A789" stroke-width="0.75" stroke-linecap="round" stroke-linejoin="round"/>
<path d="M255.504 208.632C255.9 213.805 268.2 208.124 267.396 203.596C266.592 199.068 255.039 202.653 255.504 208.632Z" fill="#FEBD9D" stroke="#F4A789" stroke-width="0.75" stroke-linecap="round" stroke-linejoin="round"/>
<path d="M219.974 210.691C212.477 214.884 208.864 232.362 221.583 233.528C240.327 235.24 241.222 209.959 224.799 212.341" stroke="#1B1C1E" stroke-width="2" stroke-linecap="round" stroke-linejoin="round"/>
<path d="M175.215 77.9504C174.229 86.9189 163.277 92.1784 163.277 92.1784L132.89 121.23C129.775 126.675 121.292 129.417 116.128 124.864C113.103 122.21 111.223 117.062 112.243 108.49C111.397 108.491 110.57 108.219 109.864 107.709C106.365 105.34 104.201 97.7852 109.457 88.8168C109.083 89.2137 102.083 96.6689 94.8802 94.4112C93.6414 94.0488 92.487 93.4025 91.4932 92.5151C90.4994 91.6276 89.6889 90.5193 89.1153 89.2633C86.8501 84.1899 87.6429 75.73 94.11 64.1318C98.7083 55.858 105.107 54.3694 110.589 55.92C116.796 57.6566 121.824 63.2387 121.824 67.2949C123.194 65.4544 124.782 63.8231 126.547 62.4448C128.971 60.5965 131.972 59.3436 134.657 61.1299C134.657 61.1299 144.102 55.5603 149.471 59.0459C156.153 63.3627 154.681 66.3646 161.182 66.836C166.018 67.1833 173.64 68.523 175.033 74.5268C175.299 75.6439 175.36 76.8073 175.215 77.9504Z" fill="#B25E47"/>
<path d="M121.824 67.2949L109.479 88.7919C108.597 89.6954 107.655 90.5248 106.659 91.2728C103.884 93.3816 99.4444 95.7881 94.9141 94.374C93.6753 94.0115 92.5209 93.3652 91.5271 92.4778C90.5333 91.5904 89.7229 90.482 89.1492 89.2261C103.216 88.9035 108.165 84.5992 105.277 76.1269C102.593 68.2376 99.8069 58.3264 110.623 55.8827C114.854 57.0368 118.532 59.8989 120.918 63.896C121.481 64.9251 121.793 66.0956 121.824 67.2949Z" fill="#B25E47"/>
<path d="M175.215 77.9505C174.229 86.919 163.277 92.1785 163.277 92.1785L132.89 121.23C129.775 126.675 121.292 129.417 116.128 124.864C114.342 120.174 113.903 114.998 114.87 110.027C115.837 105.057 118.164 100.527 121.541 97.041C127.771 90.8388 123.206 86.2119 123.807 78.0497C124.407 69.8875 138.043 57.3218 147.806 68.5975C155.462 77.4419 169.869 66.7492 175.09 74.5268C175.336 75.648 175.379 76.8114 175.215 77.9505Z" fill="#B25E47"/>
<path d="M156.583 137.306C142.924 135.768 129.062 120.25 129.062 120.25C123.852 126.75 113.579 117.037 118.664 108.949C121.994 103.628 127.204 106.791 128.473 109.694C130.586 108.199 132.136 105.919 132.837 103.274C133.538 100.628 133.344 97.7934 132.289 95.292C131.171 92.2208 130.688 88.9165 130.874 85.6165C135.495 77.9257 147.749 76.1642 147.749 76.1642C149.56 78.2559 151.764 79.8933 154.208 80.9639C156.651 82.0345 159.278 82.513 161.907 82.3665C161.907 82.3665 166.108 91.3597 169.529 100.502C169.597 100.7 169.687 100.924 169.755 101.122C170.718 103.727 171.613 106.332 172.315 108.714C172.383 108.949 172.44 109.16 172.508 109.384C173.07 111.265 173.487 113.194 173.753 115.152C174.852 124.988 170.231 138.906 156.583 137.306Z" fill="#FEBD9D"/>
<path d="M162.258 96.3959C162.258 96.7149 162.344 97.0267 162.506 97.2919C162.668 97.557 162.898 97.7637 163.167 97.8858C163.436 98.0078 163.732 98.0398 164.017 97.9776C164.303 97.9153 164.565 97.7618 164.771 97.5362C164.977 97.3107 165.118 97.0234 165.174 96.7105C165.231 96.3977 165.202 96.0735 165.091 95.7788C164.979 95.4842 164.79 95.2323 164.548 95.0551C164.306 94.8779 164.021 94.7834 163.73 94.7834C163.341 94.7866 162.968 94.9576 162.692 95.2593C162.417 95.561 162.261 95.9693 162.258 96.3959Z" fill="#683F1D"/>
<path d="M154.681 99.6335C155.494 99.6335 156.153 98.9115 156.153 98.0209C156.153 97.1303 155.494 96.4084 154.681 96.4084C153.868 96.4084 153.209 97.1303 153.209 98.0209C153.209 98.9115 153.868 99.6335 154.681 99.6335Z" fill="#683F1D"/>
<path d="M152.948 108.937C155.899 110.558 159.173 111.347 162.473 111.232C162.473 111.232 161.839 117.273 157.105 115.66C152.971 114.258 152.948 108.937 152.948 108.937Z" fill="#FEFEFE" stroke="#F4A789" stroke-width="0.75" stroke-linecap="round" stroke-linejoin="round"/>
<path d="M148.282 93.2823C148.825 95.267 155.632 93.2823 154.885 90.0571C154.137 86.8319 147.5 90.5285 148.282 93.2823Z" fill="#B25E47"/>
<path d="M159.845 89.2883C159.743 91.4467 166.709 91.5955 166.709 89.7348C166.709 88.0478 160.026 85.8026 159.845 89.2883Z" fill="#B25E47"/>
<path d="M112.243 108.49C113.086 102.385 115.783 96.7701 119.899 92.5504" stroke="#683F1D" stroke-width="0.75" stroke-linecap="round" stroke-linejoin="round"/>
<path d="M134.656 61.1173C132.516 62.9904 129.311 69.081 128.065 71.8224" stroke="#683F1D" stroke-width="0.75" stroke-linecap="round" stroke-linejoin="round"/>
<path d="M132.754 77.9629C135.28 70.5946 140.138 67.2702 142.415 70.0984C144.691 72.9266 147.749 76.1518 147.749 76.1518" stroke="#683F1D" stroke-width="0.75" stroke-linecap="round" stroke-linejoin="round"/>
<path d="M161.907 82.4284C164.738 82.3044 167.434 79.1412 168.249 77.3053" stroke="#683F1D" stroke-width="0.75" stroke-linecap="round" stroke-linejoin="round"/>
<path d="M105.243 87.4646C94.8009 89.2509 89.6476 72.3187 98.1307 58.9342" stroke="#683F1D" stroke-width="0.75" stroke-linecap="round" stroke-linejoin="round"/>
<path d="M115.709 71.8225C117.894 65.6203 110.601 55.6098 106.648 62.4819C102.118 70.3464 108.732 80.7786 115.709 79.8483" stroke="#683F1D" stroke-width="0.75" stroke-linecap="round" stroke-linejoin="round"/>
<path d="M109.479 88.7921C111.979 80.6555 116.211 73.2869 121.824 67.2951C121.824 67.2951 118.653 74.3408 120.975 79.3523C116.945 82.1986 113.103 85.353 109.479 88.7921Z" fill="#C6C3FF"/>
<path d="M119.899 114.258C122.006 110.177 125.664 110.401 127.589 113.837" stroke="#F4A789" stroke-width="0.75" stroke-linecap="round" stroke-linejoin="round"/>
<path d="M126.819 112.745C122.481 111.505 122.47 117.881 127.08 116.975" stroke="#F4A789" stroke-width="0.75" stroke-linecap="round" stroke-linejoin="round"/>
<path d="M158.328 95.2299C158.26 98.9512 160.978 101.085 162.767 102.114C164.557 103.144 163.968 105.836 163.843 106.233" stroke="#F4A789" stroke-width="0.75" stroke-linecap="round" stroke-linejoin="round"/>
<path d="M129.073 120.299C129.768 119.316 130.346 118.241 130.795 117.099" stroke="#F4A789" stroke-width="0.75" stroke-linecap="round" stroke-linejoin="round"/>
<path d="M148.689 107.721C147.557 110.078 144.08 110.512 140.761 108.714C137.443 106.915 135.71 103.528 136.797 101.172C137.884 98.8148 141.407 98.3806 144.725 100.192C148.044 102.003 149.777 105.414 148.689 107.721Z" fill="#F4A789"/>
<path d="M172.508 109.433C171.797 109.793 171.008 109.924 170.232 109.812C169.457 109.7 168.726 109.349 168.125 108.8C166.482 107.002 167.105 103.355 169.529 100.551C169.597 100.75 169.688 100.973 169.756 101.172C170.718 103.777 171.613 106.382 172.315 108.763C172.383 108.999 172.44 109.21 172.508 109.433Z" fill="#F4A789"/>
<path d="M575.879 50.1392V235.314H334.842V50.1392C334.842 45.1847 336.639 40.433 339.838 36.9296C343.036 33.4262 347.375 31.458 351.898 31.458H558.89C563.403 31.4744 567.726 33.4503 570.91 36.9522C574.095 40.4542 575.882 45.1965 575.879 50.1392V50.1392Z" stroke="#1B1C1E" stroke-width="2" stroke-linecap="round" stroke-linejoin="round"/>
<path d="M575.879 50.1392V50.9703H334.842V50.1392C334.842 45.1847 336.639 40.433 339.838 36.9296C343.036 33.4262 347.375 31.458 351.898 31.458H558.89C563.403 31.4744 567.726 33.4503 570.91 36.9522C574.095 40.4542 575.882 45.1965 575.879 50.1392V50.1392Z" stroke="#1B1C1E" stroke-width="2" stroke-linecap="round" stroke-linejoin="round"/>
<path d="M543.295 41.2204C543.294 41.8932 543.112 42.5508 542.771 43.11C542.429 43.6692 541.944 44.1048 541.376 44.3617C540.808 44.6186 540.184 44.6852 539.582 44.553C538.979 44.4208 538.426 44.0959 537.993 43.6193C537.559 43.1428 537.265 42.536 537.146 41.8759C537.028 41.2157 537.091 40.5319 537.327 39.9111C537.564 39.2903 537.964 38.7603 538.475 38.3883C538.987 38.0164 539.588 37.8191 540.203 37.8216C540.61 37.8216 541.013 37.9096 541.388 38.0805C541.764 38.2515 542.106 38.502 542.393 38.8178C542.68 39.1336 542.908 39.5084 543.062 39.9207C543.217 40.333 543.296 40.7746 543.295 41.2204Z" fill="#1B1C1E"/>
<path d="M553.42 41.2204C553.42 41.8926 553.238 42.5497 552.897 43.1087C552.556 43.6676 552.071 44.1033 551.504 44.3605C550.937 44.6178 550.313 44.6851 549.711 44.5539C549.109 44.4228 548.556 44.0991 548.122 43.6237C547.688 43.1484 547.393 42.5428 547.273 41.8835C547.153 41.2241 547.215 40.5408 547.45 39.9197C547.685 39.2986 548.082 38.7678 548.593 38.3943C549.103 38.0209 549.703 37.8215 550.317 37.8215C551.14 37.8215 551.929 38.1796 552.511 38.817C553.093 39.4544 553.42 40.319 553.42 41.2204Z" fill="#1B1C1E"/>
<path d="M563.534 41.2204C563.534 41.8926 563.352 42.5497 563.011 43.1087C562.67 43.6676 562.185 44.1033 561.618 44.3605C561.051 44.6178 560.427 44.6851 559.825 44.5539C559.223 44.4228 558.67 44.0991 558.236 43.6237C557.802 43.1484 557.507 42.5428 557.387 41.8835C557.267 41.2241 557.329 40.5408 557.564 39.9197C557.798 39.2986 558.196 38.7678 558.706 38.3943C559.217 38.0209 559.817 37.8215 560.431 37.8215C561.254 37.8215 562.043 38.1796 562.625 38.817C563.207 39.4544 563.534 40.319 563.534 41.2204Z" fill="#1B1C1E"/>
<path d="M339.984 130.645C339.361 122.904 370.564 108.23 375.717 119.555L365.524 130.645C365.524 130.645 344.469 139.787 339.984 130.645Z" fill="#C882FF"/>
<path d="M355.251 75.2832C350.721 59.852 350.381 57.9168 353.416 56.7632C356.451 55.6096 364.142 73.1372 365.014 75.2832C368.061 82.0377 370.408 89.1441 372.013 96.4701C373.361 103.317 375.128 119.084 375.411 122.879C376.612 138.906 352.487 143.781 351.434 131.314C350.381 118.848 350.301 114.816 350.301 114.816C350.301 114.816 337.843 116.057 336.099 105.91C334.355 95.763 334.842 81.8452 334.842 81.8452C334.842 81.8452 315.905 78.4091 316.562 72.9387C317.219 67.4683 354.277 78.5208 354.277 78.5208L355.251 75.2832Z" fill="#B25E47"/>
<path d="M334.842 81.8452C334.842 81.8452 315.905 78.4092 316.562 72.9388C317.219 67.4684 354.277 78.5208 354.277 78.5208L355.251 75.3204C350.721 59.8892 350.381 57.9541 353.416 56.8005C356.452 55.6469 364.142 73.1745 365.014 75.3204" stroke="#914839" stroke-width="0.75" stroke-linecap="round" stroke-linejoin="round"/>
<path d="M354.277 78.4834C352.65 85.3218 352.91 92.5348 355.024 99.2114" stroke="#914839" stroke-width="0.75" stroke-linecap="round" stroke-linejoin="round"/>
<path d="M345.409 66.6495C348.376 68.3365 350.721 68.6963 351.604 64.057C352.488 59.4177 348.308 59.306 346.96 59.5541C344.888 59.9263 344.129 65.9177 345.409 66.6495Z" fill="#683F1D"/>
<path d="M345.964 65.4587C345.498 67.2674 345.12 69.1017 344.831 70.954C345.318 71.2269 348.229 72.3061 348.614 71.2269C349.058 69.3326 349.373 67.4045 349.554 65.4587H345.964Z" fill="#683F1D"/>
<path d="M343.314 72.4921C341.762 80.096 333.743 121.775 333.471 123.14C333.2 124.504 333.562 130.806 334.049 131.041C334.536 131.277 337.334 126.774 338.353 124.492C339.372 122.209 348.388 76.4739 348.943 74.3403C350.324 69.1428 344.333 67.5179 343.314 72.4921Z" fill="#683F1D"/>
<path d="M336.258 96.1476C332.373 97.1275 331.274 101.184 334.14 103.876C337.22 106.778 344.809 105.488 345.16 101.779C345.511 98.0703 339.497 95.3413 336.258 96.1476Z" fill="#B25E47" stroke="#914839" stroke-width="0.75" stroke-linecap="round" stroke-linejoin="round"/>
<path d="M335.907 89.4988C331.92 88.8538 330.946 93.2202 333.789 96.5694C336.631 99.9186 346.021 100.675 346.553 96.6934C347.085 92.7116 338.353 89.8957 335.907 89.4988Z" fill="#B25E47" stroke="#914839" stroke-width="0.75" stroke-linecap="round" stroke-linejoin="round"/>
<path d="M332.373 82.0436C337.379 80.8031 348.229 88.804 347.787 91.2973C347.255 94.4357 342.124 94.9071 334.899 91.5454C328.114 88.3947 329.926 82.6762 332.373 82.0436Z" fill="#B25E47" stroke="#914839" stroke-width="0.75" stroke-linecap="round" stroke-linejoin="round"/>
<mask id="mask1_0_2819" style="mask-type:alpha" maskUnits="userSpaceOnUse" x="335" y="43" width="242" height="193">
<rect x="335.113" y="43.4158" width="241.241" height="192.27" fill="#C4C4C4"/>
</mask>
<g mask="url(#mask1_0_2819)">
<path d="M573.353 142.491C557.814 141.66 544.948 157.004 540.961 174.643C540.848 175.139 540.746 175.673 540.656 176.256C540.231 178.971 539.933 181.707 539.761 184.455C538.107 207.739 539.67 254.045 539.829 255.161C539.885 255.546 528.831 255.161 513.496 254.367C507.833 254.082 501.627 253.772 495.148 253.412C462.213 251.638 423.093 249.244 423.093 249.244L420.715 220.267C420.715 220.267 415.788 229.397 398.935 247.222C382.082 265.047 355.138 255.111 358.037 232.696C359.849 218.617 367.438 208.322 376.634 191.079C379.477 185.745 382.479 179.754 385.491 172.77C389.523 163.492 393.419 154.635 397.18 146.634C398.822 143.111 400.441 139.749 402.016 136.599C407.928 124.653 413.228 115.61 417.498 111.38C430.33 98.6532 457.83 105.984 465.157 108.564C476.074 112.456 487.402 114.795 498.863 115.523C515.116 116.764 539.795 124.442 552.865 129.429C560.403 132.201 567.342 136.638 573.251 142.466L573.353 142.491Z" fill="#EAC9FF"/>
<path d="M584.294 168.9C570.069 153.27 548.471 146.448 526.793 167.659C501.582 192.258 482.237 196.537 453.877 160.614C433.366 134.564 426.253 128.002 402.016 136.648C407.928 124.703 413.228 115.66 417.498 111.43C430.331 98.7027 457.83 106.034 465.158 108.614C476.076 112.489 487.404 114.811 498.863 115.523C515.116 116.764 539.795 124.442 552.865 129.429C560.404 132.201 567.342 136.638 573.252 142.466C578.937 147.378 582.256 157.202 584.294 168.9Z" fill="#EAC9FF"/>
<path d="M396.771 213.606C387.711 224.373 379.567 201.028 376.634 191.079C379.477 185.745 382.478 179.754 385.491 172.77C389.523 163.492 393.419 154.635 397.179 146.634C403.862 157.798 394.835 168.069 394.201 173.13C392.547 186.663 409.762 198.15 396.771 213.606Z" fill="#C882FF"/>
<path d="M339.984 130.644C353.983 133.882 375.717 119.555 375.717 119.555C375.717 119.555 387.688 178.117 390.814 191.104C393.94 204.092 413.942 254.963 374.958 257.046C349.939 258.386 348.263 206.3 346.779 189.157C345.296 172.013 339.984 130.644 339.984 130.644Z" fill="#EAC9FF"/>
<path d="M349.26 137.343C360.03 138.174 372.025 130.235 372.025 130.235" stroke="#C882FF" stroke-width="0.75" stroke-linecap="round" stroke-linejoin="round"/>
<path d="M375.717 119.555C375.717 119.555 387.689 178.116 390.815 191.104C392.525 198.187 399.252 216.546 398.686 232.113" stroke="#C882FF" stroke-width="0.75" stroke-linecap="round" stroke-linejoin="round"/>
<path d="M453.877 118.054C460.854 132.232 479.36 145.865 501.695 127.047C501.695 127.047 504.096 119.232 503.847 119.232C503.598 119.232 457.037 113.03 457.037 113.03L453.877 118.054Z" fill="#FEFEFE"/>
<path d="M472.259 100.539C466.505 99.112 458.169 100.712 452.416 110.388C446.662 120.063 445.926 128.039 446.255 127.953C446.583 127.866 455.315 121.825 459.223 122.271C463.13 122.718 471.885 125.546 471.885 125.546L472.259 100.539Z" fill="#C6C3FF"/>
<path d="M498.184 103.379C498.184 103.379 510.903 103.466 512.602 113.228C514.3 122.991 509.612 134.701 503.858 140.109C498.104 145.517 501.264 132.294 480.606 126.092L498.184 103.379Z" fill="#C6C3FF"/>
<path d="M504.39 114.791C504.39 114.791 497.323 126.551 481.58 126.811C465.837 127.072 462.813 116.801 462.813 116.801C464.523 112.137 466.573 102.188 467.887 95.2171C468.725 90.8135 469.269 87.5883 469.269 87.5883C469.269 87.5883 471.874 59.9759 498.897 61.6381L499.362 66.1657L504.39 114.791Z" fill="#B25E47"/>
<path d="M467.887 95.4899C468.725 91.0987 469.269 87.8612 469.269 87.8612L484.649 79.9595C484.649 79.9595 487.084 99.2113 467.887 95.4899Z" fill="#914839"/>
<path d="M420.715 220.267C418.54 193.076 418.54 171.058 418.54 171.058" stroke="#C882FF" stroke-width="0.75" stroke-linecap="round" stroke-linejoin="round"/>
</g>
<path d="M523.406 286.396C522.087 285.869 520.828 285.174 519.657 284.324C511.729 278.631 511.106 267.541 513.496 254.318C515.354 244.196 519.001 232.833 522.557 221.694C526.623 208.992 530.598 196.599 531.72 186.676C531.878 185.286 531.969 183.959 532.014 182.694C532.231 175.085 533.502 167.556 535.786 160.366C542.287 140.345 556.455 127.742 573.308 142.491C578.892 147.378 582.21 157.203 584.249 168.9C584.974 173.08 585.54 177.509 586.004 182.024C587.545 197.356 587.771 213.842 588.462 226.122C591.871 285.577 578.858 309.319 523.406 286.396Z" fill="#EAC9FF"/>
<path d="M584.294 168.9C572.051 155.453 554.326 148.519 535.808 160.341C542.309 140.32 556.478 127.717 573.331 142.466C578.937 147.378 582.256 157.203 584.294 168.9Z" fill="#EAC9FF"/>
<path d="M539.829 255.111C539.885 255.496 528.831 255.111 513.496 254.318C507.833 254.032 501.626 253.722 495.148 253.362C484.071 247.904 477.185 240.003 483.086 228.677C499.146 197.902 528.65 240.536 530.19 210.071C531.232 189.181 535.853 184.641 539.761 184.505C538.107 207.739 539.636 254.045 539.829 255.111Z" fill="#C882FF"/>
<path d="M543.6 165.563C541.4 171.593 540.103 177.973 539.761 184.455C538.288 207.751 539.67 254.045 539.829 255.161" stroke="#C882FF" stroke-width="0.75" stroke-linecap="round" stroke-linejoin="round"/>
<path d="M523.406 286.395C522.086 285.869 520.828 285.174 519.657 284.324C532.365 287.313 551.37 290.005 559.739 282.178C572.934 269.873 564.553 254.094 571.847 245.411C579.141 236.728 589.662 233.924 586.049 182.061C587.59 197.393 587.816 213.879 588.507 226.159C591.871 285.577 578.858 309.319 523.406 286.395Z" fill="#C882FF"/>
<path d="M491.626 182.024C493.642 172.101 482.248 172.535 482.248 172.535C483.256 163.38 472.179 160.837 469.62 169.781C460.616 166.804 457.773 169.781 456.459 174.966L491.626 182.024Z" fill="#1B1C1E"/>
<path d="M476.268 173.49C477.75 173.49 478.952 172.174 478.952 170.55C478.952 168.926 477.75 167.61 476.268 167.61C474.786 167.61 473.584 168.926 473.584 170.55C473.584 172.174 474.786 173.49 476.268 173.49Z" fill="#EEEEEE" stroke="#1B1C1E" stroke-linecap="round" stroke-linejoin="round"/>
<path d="M439.357 167.598L422.549 267.417L489.281 282.178L507.21 182.223L439.357 167.598Z" fill="#EEEEEE" stroke="#1B1C1E" stroke-linecap="round" stroke-linejoin="round"/>
<path d="M459.914 233.739C456.516 243.451 456.312 253.66 457.875 257.072C457.875 257.072 464.24 258.374 470.605 239.457L459.914 233.739Z" fill="#C882FF"/>
<path d="M468.555 214.958C453.288 209.215 445.994 205.742 443.242 204.923C440.49 204.104 430.546 203.186 428.96 204.923C427.374 206.659 427.261 208.867 427.828 211.125C428.394 213.383 426.695 215.132 426.457 217.464C426.219 219.796 428.779 220.503 428.258 222.823C427.737 225.142 425.993 227.685 427.193 230.265C428.394 232.845 426.061 235.475 428.258 238.601C430.455 241.727 452.971 243.24 457.909 242.087L467.604 246.838C467.604 246.838 484.661 227.648 468.555 214.958Z" fill="#B25E47"/>
<path d="M443.242 204.923C440.49 204.117 430.546 203.186 428.96 204.923C427.374 206.66 427.261 208.868 427.828 211.125C428.394 213.383 426.695 215.132 426.457 217.464C426.219 219.796 428.779 220.503 428.258 222.823C427.737 225.142 425.993 227.685 427.193 230.265C428.394 232.846 426.061 235.475 428.258 238.601" stroke="#914839" stroke-width="0.75" stroke-linecap="round" stroke-linejoin="round"/>
<path d="M559.751 282.166C555.776 290.03 545.832 293.814 526.906 287.574C521.81 285.887 516.894 284.138 512.183 282.364C504.39 279.437 497.198 276.448 490.754 273.582C479.525 268.693 468.532 263.179 457.818 257.059C460.665 253.622 462.962 249.684 464.614 245.411C465.644 242.883 466.492 240.27 467.151 237.597C468.91 230.209 469.383 222.525 468.544 214.946C471.115 215.789 473.879 216.658 476.789 217.526C483.823 219.635 491.705 221.818 499.69 224.113C523.622 231.022 548.516 238.936 554.575 248.773C555.13 249.679 555.708 250.584 556.161 251.527C556.353 251.899 556.557 252.271 556.739 252.656C556.794 252.751 556.844 252.85 556.886 252.953C557.112 253.4 557.327 253.859 557.531 254.305C557.916 255.112 558.256 255.918 558.585 256.724C562.152 265.68 563.16 275.43 559.751 282.166Z" fill="#EAC9FF"/>
<path d="M468.555 214.958C495.964 224.001 545.662 234.309 554.632 248.785C556.188 251.296 557.53 253.957 558.641 256.737" stroke="#C882FF" stroke-width="0.75" stroke-linecap="round" stroke-linejoin="round"/>
<path d="M476.789 217.526C478.488 236.344 469.62 254.405 469.62 254.405" stroke="#C882FF" stroke-width="0.75" stroke-linecap="round" stroke-linejoin="round"/>
<path d="M559.74 282.178C555.764 290.043 545.82 293.826 526.895 287.587C521.798 285.9 516.882 284.151 512.171 282.377C523.282 285.577 549.456 291.767 559.74 282.178Z" fill="#C882FF"/>
<path d="M498.863 61.8741L499.327 66.3893C489.757 82.7385 476.676 87.8864 469.235 87.8119C456.935 84.4503 452.733 72.3187 452.019 59.2815C451.844 56.1917 451.844 53.0928 452.019 50.003C452.569 41.1723 453.927 32.4245 456.074 23.8914C456.074 23.8914 493.019 5.06137 495.579 42.858C495.579 42.858 503.507 41.2702 504.968 50.9209C506.214 58.9342 498.863 61.8741 498.863 61.8741Z" fill="#B25E47"/>
<path d="M457.954 50.0523C458.767 50.0523 459.426 49.3303 459.426 48.4397C459.426 47.5491 458.767 46.8271 457.954 46.8271C457.141 46.8271 456.482 47.5491 456.482 48.4397C456.482 49.3303 457.141 50.0523 457.954 50.0523Z" fill="#683F1D"/>
<path d="M468.238 47.9932C469.051 47.9932 469.71 47.2713 469.71 46.3807C469.71 45.4901 469.051 44.7681 468.238 44.7681C467.425 44.7681 466.765 45.4901 466.765 46.3807C466.765 47.2713 467.425 47.9932 468.238 47.9932Z" fill="#683F1D"/>
<path d="M466.018 37.685C466.177 39.893 473.063 40.749 473.459 39.4961C474.014 37.6106 465.622 32.5124 466.018 37.685Z" fill="#683F1D"/>
<path d="M452.869 40.9846C452.869 42.2251 460.355 42.7336 460.083 38.5037C459.902 35.4398 453.027 37.6602 452.869 40.9846Z" fill="#683F1D"/>
<path d="M493.665 54.8406C496.745 49.8788 501.593 50.3998 502.125 51.3425" stroke="#914839" stroke-width="0.75" stroke-linecap="round" stroke-linejoin="round"/>
<path d="M494.978 53.1411C499.509 50.2136 502 56.7756 496.247 56.7756" stroke="#914839" stroke-width="0.75" stroke-linecap="round" stroke-linejoin="round"/>
<path d="M461.929 43.751C463.175 46.3931 463.062 47.9933 462.246 49.6928C461.431 51.3922 458.928 55.2624 460.23 58.6984" stroke="#914839" stroke-width="0.75" stroke-linecap="round" stroke-linejoin="round"/>
<path d="M469.994 59.2815C468.861 63.3874 464.399 65.9551 462.326 65.4838C462.326 65.4838 464.467 71.8473 468.238 70.2223C472.576 68.2996 469.994 59.2815 469.994 59.2815Z" fill="#FEFEFE" stroke="#914839" stroke-width="0.75" stroke-linecap="round" stroke-linejoin="round"/>
<path d="M492.985 60.6831C493.833 61.338 494.799 61.7874 495.819 62.0013C496.838 62.2152 497.888 62.1887 498.897 61.9236" stroke="#914839" stroke-width="0.75" stroke-linecap="round" stroke-linejoin="round"/>
<path d="M506.418 39C510.653 45.3759 504.277 48.1421 504.277 48.1421C503.634 47.0981 502.782 46.2284 501.785 45.5992C501.16 45.1947 500.46 44.9468 499.736 44.8733C499.013 44.7998 498.283 44.9024 497.6 45.1739C496.917 45.4454 496.298 45.879 495.786 46.4436C495.274 47.0082 494.882 47.6899 494.639 48.4398C485.952 48.6383 489.701 41.208 489.701 41.208C481.908 44.6192 481.659 35.874 485.012 31.9294C478.93 39.3721 471.205 31.9294 472.463 25.1938C470.311 32.5496 462.643 32.8349 463.662 26.7319C463.004 27.9858 462.205 29.1443 461.284 30.1804C456.017 35.9857 451.283 29.7834 453.277 25.2186C445.348 33.48 441.951 24.2386 449.482 19.2768C443.514 13.918 450.615 6.27685 455.383 10.2463C454.251 0.732027 463.221 0.322679 467.151 5.8675C468.691 -4.57711 480.606 1.12897 481.082 6.07838C489.859 -0.644876 496.655 4.30453 495.805 15.2329C499.35 10.0354 506.95 13.0869 504.028 26.397C511.322 25.8264 512.556 35.7376 506.418 39Z" fill="#683F1D"/>
<path d="M501.785 45.5991C501.159 45.1947 500.46 44.9468 499.736 44.8732C499.013 44.7997 498.283 44.9024 497.6 45.1739C496.917 45.4454 496.298 45.8789 495.785 46.4436C495.273 47.0082 494.882 47.6899 494.638 48.4398C485.952 48.6383 489.7 41.2079 489.7 41.2079C481.908 44.6192 481.659 35.874 485.012 31.9294C478.93 39.3721 471.205 31.9294 472.462 25.1937C470.311 32.5496 462.643 32.8349 463.662 26.7319C463.004 27.9858 462.205 29.1443 461.284 30.1803C459.155 23.1221 463.923 13.8064 471.205 18.0239C472.168 12.3426 484.071 8.65848 484.003 22.9857C488.409 16.25 498.387 18.5573 493.664 31.4084C497.379 28.3693 505.919 33.6288 501.785 45.5991Z" fill="#683F1D"/>
<path d="M485.782 48.0926C486.835 50.3998 484.853 53.8111 481.365 55.7338C477.876 57.6565 474.184 57.334 473.131 55.0267C472.078 52.7195 474.048 49.3082 477.548 47.3855C481.048 45.4628 484.729 45.7853 485.782 48.0926Z" fill="#914839"/>
<path d="M456.64 56.8624C456.097 58.4874 454.273 59.3433 452.031 59.3433C451.855 56.2534 451.855 53.1546 452.031 50.0647C455.361 51.6153 457.41 54.5551 456.64 56.8624Z" fill="#914839"/>
<path d="M488.216 315.943V501.118H247.134V315.943C247.126 313.489 247.562 311.058 248.416 308.789C249.27 306.521 250.525 304.459 252.109 302.724C253.694 300.989 255.576 299.614 257.647 298.679C259.719 297.744 261.939 297.266 264.179 297.275H471.171C473.411 297.266 475.631 297.744 477.702 298.679C479.774 299.614 481.656 300.989 483.24 302.724C484.825 304.459 486.08 306.521 486.934 308.789C487.788 311.058 488.224 313.489 488.216 315.943Z" stroke="#1B1C1E" stroke-width="2" stroke-linecap="round" stroke-linejoin="round"/>
<path d="M488.216 315.943V316.787H247.134V315.943C247.126 313.489 247.562 311.058 248.416 308.789C249.27 306.521 250.525 304.459 252.109 302.724C253.694 300.989 255.576 299.614 257.647 298.679C259.719 297.744 261.939 297.266 264.179 297.275H471.171C473.411 297.266 475.631 297.744 477.702 298.679C479.774 299.614 481.656 300.989 483.24 302.724C484.825 304.459 486.08 306.521 486.934 308.789C487.788 311.058 488.224 313.489 488.216 315.943Z" stroke="#1B1C1E" stroke-width="2" stroke-linecap="round" stroke-linejoin="round"/>
<path d="M455.586 307.024C455.586 307.697 455.404 308.354 455.063 308.913C454.722 309.472 454.238 309.907 453.671 310.164C453.104 310.422 452.48 310.489 451.878 310.358C451.276 310.227 450.723 309.903 450.289 309.428C449.855 308.952 449.559 308.347 449.439 307.687C449.32 307.028 449.381 306.345 449.616 305.724C449.851 305.103 450.249 304.572 450.759 304.198C451.269 303.825 451.869 303.625 452.483 303.625C453.306 303.625 454.095 303.984 454.677 304.621C455.259 305.258 455.586 306.123 455.586 307.024Z" fill="#1B1C1E"/>
<path d="M462.597 310.423C464.311 310.423 465.7 308.901 465.7 307.024C465.7 305.147 464.311 303.625 462.597 303.625C460.883 303.625 459.494 305.147 459.494 307.024C459.494 308.901 460.883 310.423 462.597 310.423Z" fill="#1B1C1E"/>
<path d="M472.723 310.423C474.437 310.423 475.826 308.901 475.826 307.024C475.826 305.147 474.437 303.625 472.723 303.625C471.009 303.625 469.619 305.147 469.619 307.024C469.619 308.901 471.009 310.423 472.723 310.423Z" fill="#1B1C1E"/>
<path d="M261.348 405.405C254.462 383.077 252.842 371.02 254.722 369.295C255.855 368.204 257.746 367.398 257.893 365.19C258.041 362.982 255.73 355.564 263.794 353.827C263.794 353.827 266.524 336.324 269.117 328.125C269.117 328.125 283.524 390.929 284.532 395.643C285.54 400.356 266.025 420.638 261.348 405.405Z" fill="#FEBD9D"/>
<path d="M263.794 353.827C263.267 356.637 262.889 359.479 262.662 362.337" stroke="#F4A789" stroke-width="0.75" stroke-linecap="round" stroke-linejoin="round"/>
<path d="M254.223 375.895C253.804 372.173 254.008 369.965 254.733 369.296C255.865 368.204 257.757 367.398 257.904 365.19C258.051 362.982 255.741 355.564 263.805 353.827C263.805 353.827 266.534 336.324 269.128 328.125" stroke="#F4A789" stroke-width="0.75" stroke-linecap="round" stroke-linejoin="round"/>
<path d="M331.392 290.559L268.277 310.055C264.593 311.193 262.448 315.386 263.487 319.422L275.738 366.998C276.778 371.033 280.607 373.382 284.291 372.244L347.406 352.748C351.09 351.61 353.235 347.416 352.196 343.381L339.944 295.805C338.905 291.77 335.076 289.421 331.392 290.559Z" fill="#EEEEEE" stroke="#1B1C1E" stroke-linecap="round" stroke-linejoin="round"/>
<path d="M328.273 297.506L274.271 314.187C271.833 314.94 270.414 317.715 271.102 320.385L281.773 361.825C282.46 364.495 284.994 366.05 287.432 365.297L341.434 348.616C343.872 347.863 345.292 345.088 344.604 342.417L333.933 300.978C333.245 298.307 330.711 296.753 328.273 297.506Z" stroke="#1B1C1E" stroke-linecap="round" stroke-linejoin="round"/>
<path d="M312.62 337.602C312.637 337.953 312.637 338.305 312.62 338.656C312.444 341.325 311.593 343.887 310.162 346.056C308.731 348.225 306.777 349.914 304.518 350.934C302.26 351.954 299.787 352.265 297.376 351.832C294.965 351.399 292.712 350.239 290.87 348.482C289.027 346.725 287.668 344.44 286.945 341.885C286.221 339.329 286.162 336.603 286.774 334.013C287.386 331.422 288.645 329.07 290.41 327.219C292.174 325.369 294.374 324.093 296.764 323.535C297.655 323.314 298.567 323.206 299.482 323.213C301.209 323.211 302.919 323.582 304.515 324.304C306.111 325.027 307.561 326.086 308.783 327.422C310.005 328.758 310.975 330.345 311.637 332.092C312.299 333.838 312.641 335.711 312.642 337.602H312.62Z" stroke="#1B1C1E" stroke-linecap="round" stroke-linejoin="round"/>
<path d="M312.575 338.619C312.417 341.007 311.719 343.314 310.542 345.331C309.366 347.349 307.749 349.014 305.838 350.175C303.927 351.336 301.781 351.957 299.596 351.982C297.41 352.007 295.254 351.434 293.321 350.317C295.869 344.673 299.425 336.672 299.425 336.672L312.575 338.619Z" stroke="#1B1C1E" stroke-linecap="round" stroke-linejoin="round"/>
<path d="M312.62 337.602C312.637 337.953 312.637 338.305 312.62 338.657L299.505 336.746L309.426 328.15C311.502 330.772 312.637 334.132 312.62 337.602V337.602Z" stroke="#1B1C1E" stroke-linecap="round" stroke-linejoin="round"/>
<path d="M309.381 328.15L299.459 336.746C299.459 336.746 297.76 328.77 296.741 323.535C297.633 323.314 298.545 323.206 299.459 323.213C301.339 323.21 303.198 323.65 304.909 324.501C306.621 325.353 308.146 326.597 309.381 328.15Z" fill="#1B1C1E" stroke="#1B1C1E" stroke-linecap="round" stroke-linejoin="round"/>
<path d="M327.559 332.318C330.039 331.363 327.751 329.973 329.393 329.204C331.795 328.088 332.576 311.838 321.907 315.175C313.82 317.656 319.71 332.107 323.674 330.78C324.75 330.42 324.716 333.422 327.559 332.318Z" fill="#EEEEEE" stroke="#1B1C1E" stroke-linecap="round" stroke-linejoin="round"/>
<path d="M324.648 320.409C323.595 322.481 324.433 323.932 326.154 324.627C329.042 325.805 324.75 329.514 323.81 327.48C322.779 325.247 328.419 326.735 327.208 331.747" stroke="#1B1C1E" stroke-linecap="round" stroke-linejoin="round"/>
<path d="M326.29 335.642C327.015 337.54 327.91 337.875 329.28 337.441C330.651 337.006 330.707 335.965 330.345 334.451L326.29 335.642Z" fill="#EEEEEE" stroke="#1B1C1E" stroke-linecap="round" stroke-linejoin="round"/>
<path d="M325.124 334.439C325.781 333.199 329.654 332.442 330.198 332.578C330.741 332.715 331.228 334.439 330.515 334.886C329.019 335.617 327.423 336.073 325.792 336.238C325.628 336.185 325.478 336.093 325.351 335.968C325.225 335.843 325.126 335.688 325.062 335.515C324.997 335.342 324.97 335.155 324.98 334.969C324.991 334.783 325.04 334.602 325.124 334.439Z" fill="#EEEEEE" stroke="#1B1C1E" stroke-linecap="round" stroke-linejoin="round"/>
<path d="M324.376 332.131C325.078 330.891 329.246 330.122 329.778 330.271C330.481 330.457 330.911 332.131 330.129 332.566C328.524 333.3 326.823 333.756 325.089 333.918C324.924 333.871 324.77 333.783 324.639 333.661C324.509 333.539 324.405 333.386 324.337 333.214C324.268 333.042 324.236 332.856 324.243 332.668C324.249 332.48 324.295 332.297 324.376 332.131Z" fill="#EEEEEE" stroke="#1B1C1E" stroke-linecap="round" stroke-linejoin="round"/>
<path d="M311.091 319.318L314.534 319.566" stroke="#1B1C1E" stroke-linecap="round" stroke-linejoin="round"/>
<path d="M317.864 307.831L319.37 311.466" stroke="#1B1C1E" stroke-linecap="round" stroke-linejoin="round"/>
<path d="M329.632 308.786L328.42 311.465" stroke="#1B1C1E" stroke-linecap="round" stroke-linejoin="round"/>
<path d="M271.688 363.565C266.897 372.955 270.691 384.206 276.479 387.27C282.266 390.334 284.656 370.883 285.347 365.971C286.038 361.059 286.049 353.629 286.548 349.907C287.046 346.186 283.852 343.246 281.757 348.927C279.661 354.609 278.665 358.082 278.665 358.082L271.688 363.565Z" fill="#FEBD9D"/>
<path d="M285.347 365.971C286.05 361.009 286.05 353.629 286.548 349.907C287.046 346.186 283.852 343.246 281.757 348.927C279.662 354.609 278.665 358.082 278.665 358.082L271.688 363.565" stroke="#F4A789" stroke-width="0.75" stroke-linecap="round" stroke-linejoin="round"/>
<mask id="mask2_0_2819" style="mask-type:alpha" maskUnits="userSpaceOnUse" x="246" y="292" width="243" height="210">
<rect x="246.771" y="292.747" width="241.241" height="208.396" fill="#C4C4C4"/>
</mask>
<g mask="url(#mask2_0_2819)">
<path d="M426.377 327.033L422.526 380.373L380.348 384.727C383.962 372.161 386.87 359.364 389.058 346.409C390.009 340.815 390.87 334.873 391.527 328.807L407.066 328.026L426.377 327.033Z" fill="#FEBD9D"/>
<path d="M410.52 333.05C408.799 340.368 399.364 345.554 389.126 346.385C390.077 340.79 390.938 334.848 391.595 328.783L407.134 328.001C409.569 329.18 410.996 330.817 410.52 333.05Z" fill="#F4A789"/>
<path d="M491.885 384.702V508.809H483.097C483.097 508.809 477.909 486.295 455.575 439.108C455.575 439.108 455.144 441.205 454.272 444.839C453.072 449.875 451.022 457.839 448.111 467.304C443.203 483.581 436.885 499.307 429.242 514.267C413.127 521.828 396.13 526.896 378.74 529.326C378.264 529.326 377.777 529.463 377.29 529.512C359.962 531.857 339.847 531.869 319.438 526.114C306.764 522.597 294.669 516.935 283.591 509.33C284.203 508.239 311.759 449.156 320.344 430.152C321.012 428.676 321.68 427.237 322.36 425.811C330.424 408.928 340.096 395.804 366.214 384.702C372.273 382.147 377.596 379.877 382.262 377.892C399.466 370.586 408.04 366.976 413.295 365.264C417.01 364.057 420.54 362.928 423.885 361.878C456.073 351.756 472.043 349.386 485.577 372C487.954 376.063 490.062 380.308 491.885 384.702Z" fill="#C6C3FF"/>
<path d="M485.577 372C474.432 371.255 460.411 374.617 452.483 393.732C437.838 429.011 408.935 443.785 387.744 421.171C371.095 403.42 342.724 405.728 322.36 425.811C330.424 408.928 340.096 395.804 366.214 384.702C372.273 382.147 377.596 379.877 382.262 377.892C399.466 370.586 408.04 366.976 413.295 365.264C417.01 364.057 420.54 362.928 423.885 361.878C456.073 351.756 472.043 349.386 485.577 372Z" fill="#C6C3FF"/>
<path d="M491.886 475.267V508.759H483.097C483.097 508.759 477.91 486.245 455.575 439.058C456.855 433.613 457.84 428.366 458.633 423.714C473.062 430.636 474.297 445.286 472.723 453.559C471.261 461.263 478.68 480.142 491.886 475.267Z" fill="#7D77FF"/>
<path d="M371.729 447.58C369.464 460.556 359.599 483.306 341.988 515.805C339.281 520.519 336.208 524.968 332.802 529.103C328.304 528.361 323.843 527.368 319.438 526.126L325.01 508.822C328.17 495.437 334.071 489.471 346.778 486.791C358.059 484.397 348.613 446.613 371.729 447.58Z" fill="#7D77FF"/>
<path d="M314.987 549.074C314.987 549.074 324.534 539.498 332.802 529.091C336.208 524.956 339.281 520.507 341.988 515.793C359.599 483.306 369.453 460.556 371.729 447.568C372.439 443.549 372.42 440.469 371.673 438.327" stroke="#7D77FF" stroke-width="0.75" stroke-linecap="round" stroke-linejoin="round"/>
<path d="M460.875 406.733C460.875 406.733 460.275 413.865 458.61 423.764C457.84 428.416 456.832 433.688 455.552 439.108" stroke="#7D77FF" stroke-width="0.75" stroke-linecap="round" stroke-linejoin="round"/>
<path d="M324.999 480.961C325.418 510.794 294.328 540.875 277.283 503.959C270.159 488.54 252.366 416.582 253.612 406.732C254.744 397.962 278.166 378.438 287.782 382.258C287.782 382.258 291.803 393.844 297.33 408.63C304.363 427.448 313.832 451.488 320.491 463.421C323.4 468.72 324.957 474.778 324.999 480.961Z" fill="#C6C3FF"/>
<path d="M312.62 447.022C308.927 455.023 304.691 464.24 300.546 473.072C297.726 467.428 297.216 459.117 303.219 451.364C310.853 441.527 286.955 424.359 297.33 408.606C301.883 420.812 307.455 435.164 312.62 447.022Z" fill="#7D77FF"/>
<path d="M312.767 446.712C312.767 446.811 312.665 446.911 312.62 447.022C308.927 455.023 304.692 464.24 300.546 473.072L296.662 481.42" stroke="#7D77FF" stroke-width="0.75" stroke-linecap="round" stroke-linejoin="round"/>
</g>
<path d="M380.869 301.505C375.206 323.895 370.166 336.15 405.039 338.656C405.039 338.656 427.169 311.366 424.157 271.746C424.157 271.746 404.438 254.38 387.359 288.207C387.359 288.207 381.096 290.837 380.382 291.767C379.669 292.697 380.144 298.478 380.869 301.505Z" fill="#FEBD9D"/>
<path d="M387.359 288.207C387.359 288.207 381.096 290.837 380.383 291.767C379.669 292.698 380.145 298.478 380.87 301.505" stroke="#F4A789" stroke-width="0.75" stroke-linecap="round" stroke-linejoin="round"/>
<path d="M392.127 293.007C392.941 293.007 393.6 292.285 393.6 291.395C393.6 290.504 392.941 289.782 392.127 289.782C391.314 289.782 390.655 290.504 390.655 291.395C390.655 292.285 391.314 293.007 392.127 293.007Z" fill="#683F1D"/>
<path d="M393.407 278.345C396.329 276.125 401.46 289.05 397.745 289.001C396.25 289.001 389.851 281.05 393.407 278.345Z" fill="#BF8228"/>
<path d="M455.575 387.679C453.853 406.087 445.631 413.418 447.228 419.633C448.824 425.848 452.755 424.495 452.755 424.495C452.755 424.495 449.629 434.419 437.635 430.462C437.635 430.462 427.147 448.002 417.248 435.424C408.301 448.808 389.443 451.55 388.865 433.191C388.865 433.191 396.148 435.188 399.863 430.015C403.578 424.843 404.393 416.222 400.361 411.682C396.329 407.141 390.474 402.601 390.1 395.022C389.726 387.443 394.834 374.145 402.253 364.259C402.253 364.259 372.647 355.117 370.461 382.866L364.549 385.347C364.549 385.347 358.24 382.01 358.387 370.858C358.535 359.707 367.833 351.52 377.959 351.718C388.084 351.917 412.514 347.104 400.61 313.326C400.61 313.326 410.328 317.221 412.865 308.699C415.402 300.177 406.602 295.637 401.539 300.401C401.539 300.401 397.394 293.392 409.682 277.961C408.312 273.073 403.566 271.759 405.605 266.797C407.259 262.802 417.633 262.802 425.425 264.527C427.098 264.891 428.745 265.388 430.352 266.015C434.816 267.752 438.704 270.91 441.519 275.083C443.207 277.552 444.319 280.434 444.759 283.481C445.878 282.977 447.083 282.74 448.292 282.786C450.739 282.885 453.729 284.386 454.793 290.651C456.345 299.718 450.671 304.296 446.865 306.392C445.806 306.968 444.699 307.429 443.558 307.769C444.391 310.608 444.774 313.583 444.691 316.564C444.642 318.509 444.403 320.443 443.977 322.332C442.357 329.415 438.846 341.745 440.398 350.316C440.569 351.355 440.842 352.37 441.214 353.343C444.396 361.853 457.296 369.27 455.575 387.679Z" fill="#BF8228"/>
<path d="M446.82 306.454C445.761 307.03 444.654 307.491 443.513 307.831C443.513 307.831 438.201 309.245 436.095 299.074C434.407 290.924 438.586 285.429 444.759 283.543C445.878 283.039 447.083 282.802 448.292 282.848C437.125 293.504 442.55 302.162 446.82 306.454Z" fill="#BF8228"/>
<path d="M455.575 387.679C453.853 406.087 445.631 413.418 447.228 419.633C448.824 425.848 452.755 424.495 452.755 424.495C452.755 424.495 449.629 434.419 437.635 430.462C437.635 430.462 427.147 448.002 417.248 435.424C408.301 448.808 389.443 451.55 388.865 433.191C388.865 433.191 396.148 435.188 399.863 430.015C403.578 424.843 404.393 416.222 400.361 411.682C396.329 407.141 390.474 402.601 390.1 395.022C389.726 387.443 394.834 374.145 402.253 364.259C402.253 364.259 372.647 355.117 370.461 382.866L364.549 385.347C364.549 385.347 358.24 382.01 358.387 370.858C358.535 359.707 367.833 351.52 377.959 351.718C388.084 351.917 412.514 347.104 400.61 313.326C400.61 313.326 410.328 317.221 412.865 308.699C415.402 300.177 406.602 295.637 401.539 300.401C401.539 300.401 397.394 293.392 409.682 277.961C408.312 273.073 403.566 271.759 405.605 266.797C407.259 262.802 417.633 262.802 425.425 264.527C420.215 268.025 416.727 273.52 419.626 282.116C426.75 303.204 424.746 313.351 418.573 322.357C412.4 331.362 405.424 349.647 411.359 364.259C417.293 378.872 408.572 372.148 411.189 401.063C413.805 429.978 447.205 412.364 446.163 388.808C445.223 367.521 433.433 360.364 440.307 350.354C440.478 351.392 440.752 352.407 441.123 353.38C444.396 361.853 457.296 369.27 455.575 387.679Z" fill="#BF8228"/>
<path d="M401.369 305.499C404.608 303.291 407.678 303.489 409.456 304.891" stroke="#F4A789" stroke-width="0.75" stroke-linecap="round" stroke-linejoin="round"/>
<path d="M401.652 308.96C406.42 311.205 407.315 304.482 403.419 304.395" stroke="#F4A789" stroke-width="0.75" stroke-linecap="round" stroke-linejoin="round"/>
<path d="M426.252 275.418C431.473 277.204 439.288 286.197 439.288 286.197" stroke="#7F542D" stroke-width="0.75" stroke-linecap="round" stroke-linejoin="round"/>
<path d="M444.759 283.543C438.586 285.416 434.407 290.924 436.095 299.073C438.201 309.245 443.513 307.831 443.513 307.831" stroke="#7F542D" stroke-width="0.75" stroke-linecap="round" stroke-linejoin="round"/>
<path d="M437.963 288.219C442.743 286.123 448.451 285.23 450.625 291.854C452.8 298.478 449.617 303.613 444.759 307.397" stroke="#7F542D" stroke-width="0.75" stroke-linecap="round" stroke-linejoin="round"/>
<path d="M413.918 292.263C423.659 295.464 435.992 294.62 435.992 294.62" stroke="#7F542D" stroke-width="0.75" stroke-linecap="round" stroke-linejoin="round"/>
<path d="M416.602 310.771C425.108 313.066 435.856 306.305 437.555 303.626" stroke="#7F542D" stroke-width="0.75" stroke-linecap="round" stroke-linejoin="round"/>
<path d="M435.811 297.275C437.193 293.107 441.1 290.365 444 294.484C446.899 298.602 442.55 302.968 439.028 298.416" stroke="#7F542D" stroke-width="0.75" stroke-linecap="round" stroke-linejoin="round"/>
<path d="M402.264 364.321C410.509 353.666 417.463 345.156 413.93 329.774" stroke="#7F542D" stroke-width="0.75" stroke-linecap="round" stroke-linejoin="round"/>
<path d="M417.316 435.486C422.311 427.125 414.598 414.845 413.42 406.745C412.242 398.644 411.982 388.485 421.269 377.458" stroke="#7F542D" stroke-width="0.75" stroke-linecap="round" stroke-linejoin="round"/>
<path d="M429.854 340.976C436.785 360.289 437.873 363.403 434.112 377.867C430.352 392.33 428.087 399.5 434.112 409.821C440.806 421.258 438.711 425.401 437.623 430.462" stroke="#7F542D" stroke-width="0.75" stroke-linecap="round" stroke-linejoin="round"/>
<path d="M399.115 299.855C399.557 302.485 397.258 305.152 393.996 305.797C390.734 306.442 387.733 304.841 387.291 302.199C386.849 299.557 389.149 296.903 392.41 296.258C395.672 295.612 398.674 297.213 399.115 299.855Z" fill="#F4A789"/>
<path d="M488.216 347.054V501.118H247.134" stroke="#1B1C1E" stroke-width="2" stroke-linecap="round" stroke-linejoin="round"/>
</svg>
