<svg width="73" height="72" viewBox="0 0 73 72" fill="none" xmlns="http://www.w3.org/2000/svg">
<path d="M11.9424 48.4376C9.76869 47.3085 6.74947 48.5397 4.1342 50.1592C1.51893 51.7787 1.31932 52.3021 1.38987 51.2994C1.46557 50.2255 4.47736 45.2172 11.3097 39.9513C16.3837 36.0405 20.1221 35.7161 21.9027 35.8812C18.3294 39.7722 15.0592 43.9071 12.1321 48.2356C12.0722 48.3058 12.0088 48.3732 11.9424 48.4376Z" fill="#7D77FF" stroke="#7D77FF" stroke-width="1.81" stroke-linecap="round" stroke-linejoin="round"/>
<path d="M18.6604 69.6439C17.6553 69.6539 18.189 69.4752 19.962 66.9712C21.7349 64.4672 23.1491 61.5208 22.153 59.283C22.2201 59.2211 22.2897 59.1621 22.3616 59.1062C26.8632 56.4464 31.1912 53.4295 35.292 50.0929C35.3418 51.8874 34.7927 55.5994 30.5908 60.4212C24.9157 66.9265 19.7388 69.6351 18.6604 69.6439Z" fill="#7D77FF" stroke="#7D77FF" stroke-width="1.81" stroke-linecap="round" stroke-linejoin="round"/>
<path d="M34.7784 49.5423C30.6776 52.8789 26.3496 55.8958 21.8479 58.5556C21.4426 58.789 21.0443 59.0197 20.6523 59.2366L11.5149 49.5308C11.7576 49.1502 12.0124 48.762 12.2743 48.3711C15.2014 44.0427 18.4716 39.9077 22.0448 36.0167C27.487 30.0505 34.1276 23.9783 41.3884 19.1011C42.323 18.4748 43.2342 17.8901 44.1169 17.3516C55.6384 10.3045 63.0045 10.2124 63.0045 10.2124C63.0045 10.2124 62.4705 17.5616 54.7398 28.6354C54.1492 29.484 53.5125 30.3604 52.8291 31.2535C47.5232 38.2071 41.0739 44.4621 34.7784 49.5423Z" fill="#FEFEFE" stroke="#7D77FF" stroke-width="1.81" stroke-linecap="round" stroke-linejoin="round"/>
<path d="M54.7958 28.6949L44.1728 17.4111C55.6944 10.364 63.0605 10.2719 63.0605 10.2719C63.0605 10.2719 62.5265 17.6211 54.7958 28.6949Z" fill="#7D77FF" stroke="#7D77FF" stroke-width="0.9" stroke-miterlimit="10"/>
<path d="M40.4872 36.7705C39.7165 36.829 38.9735 36.7358 38.3008 36.4961C37.628 36.2564 37.0389 35.8751 36.567 35.3739C36.0952 34.8727 35.7501 34.2616 35.5514 33.5757C35.3527 32.8897 35.3044 32.1425 35.4093 31.3767C35.6219 29.8332 36.4401 28.3089 37.6852 27.1368C38.9303 25.9646 40.5011 25.2398 42.0546 25.1206C42.8253 25.062 43.5683 25.1553 44.241 25.3949C44.9137 25.6346 45.5029 26.016 45.9747 26.5171C46.4466 27.0183 46.7917 27.6294 46.9904 28.3153C47.1891 29.0013 47.2374 29.7486 47.1325 30.5143C47.0661 31.0126 46.935 31.5137 46.7424 32.005C46.2449 33.2741 45.3616 34.4297 44.2302 35.2917C43.0987 36.1537 41.7826 36.6736 40.4872 36.7705Z" fill="#7D77FF" stroke="#FEFEFE" stroke-width="1.81" stroke-linecap="round" stroke-linejoin="round"/>
<path d="M46.767 32.0309L35.4234 32.8676C35.3625 32.3939 35.3661 31.9016 35.4338 31.4026C35.5017 30.904 35.6343 30.4028 35.8284 29.9116L47.1674 29.0752C47.2283 29.5489 47.2248 30.0412 47.157 30.5402C47.0906 31.0385 46.9595 31.5395 46.767 32.0309Z" fill="#FEFEFE"/>
<path d="M29.6425 42.0849C25.442 42.9653 11.1529 54.8103 9.84676 60.7214C15.8322 59.7756 28.5085 46.2226 29.6425 42.0849Z" fill="#7D77FF" stroke="#7D77FF" stroke-width="0.9" stroke-miterlimit="10"/>
<path d="M40.4872 36.7705C39.7165 36.829 38.9735 36.7358 38.3008 36.4961C37.628 36.2564 37.0389 35.8751 36.567 35.3739C36.0952 34.8727 35.7501 34.2616 35.5514 33.5757C35.3527 32.8897 35.3044 32.1425 35.4093 31.3767C35.6219 29.8332 36.4401 28.3089 37.6852 27.1368C38.9303 25.9646 40.5011 25.2398 42.0546 25.1206C42.8253 25.062 43.5683 25.1553 44.241 25.3949C44.9137 25.6346 45.5029 26.016 45.9747 26.5171C46.4466 27.0183 46.7917 27.6294 46.9904 28.3153C47.1891 29.0013 47.2374 29.7486 47.1325 30.5143C47.0661 31.0126 46.935 31.5137 46.7424 32.005C46.2449 33.2741 45.3616 34.4297 44.2302 35.2917C43.0987 36.1537 41.7826 36.6736 40.4872 36.7705V36.7705Z" stroke="#7D77FF" stroke-width="1.81" stroke-linecap="round" stroke-linejoin="round"/>
</svg>
