<svg width="21" height="20" viewBox="0 0 21 20" fill="none" xmlns="http://www.w3.org/2000/svg">
<path d="M3.83337 3.33332V7.49999H4.31837M4.31837 7.49999C4.87158 6.13176 5.86311 4.98575 7.13756 4.24154C8.41202 3.49734 9.89738 3.197 11.3608 3.38761C12.8243 3.57821 14.1832 4.24899 15.2245 5.2948C16.2658 6.34062 16.9307 7.70238 17.115 9.16666M4.31837 7.49999H8.00004M17.1667 16.6667V12.5H16.6825M16.6825 12.5C16.1285 13.8674 15.1367 15.0125 13.8624 15.7561C12.5881 16.4996 11.1032 16.7996 9.64012 16.6091C8.17709 16.4185 6.81854 15.7482 5.77715 14.7031C4.73577 13.658 4.07034 12.297 3.88504 10.8333M16.6825 12.5H13" stroke="#7D77FF" stroke-width="2" stroke-linecap="round" stroke-linejoin="round"/>
</svg>
